<svg xmlns="http://www.w3.org/2000/svg" xmlns:xlink="http://www.w3.org/1999/xlink" version="1.1" x="0px" y="0px" viewBox="0 0 100 125" enable-background="new 0 0 100 100" xml:space="preserve"><path fill-rule="evenodd" clip-rule="evenodd" d="M68.467,5.24H31.533c-3.33,0-6.054,2.724-6.054,6.054v77.412  c0,3.33,2.724,6.054,6.054,6.054h36.934c3.33,0,6.055-2.724,6.055-6.054V11.294C74.521,7.964,71.797,5.24,68.467,5.24z M50,89.554  c-2.082,0-3.779-1.698-3.779-3.779s1.698-3.779,3.779-3.779s3.779,1.698,3.779,3.779S52.082,89.554,50,89.554z M70.827,78.133  H29.173V13.122h41.654V78.133z"/><text x="0" y="115" fill="#000000" font-size="5px" font-weight="bold" font-family="'Helvetica Neue', Helvetica, Arial-Unicode, Arial, Sans-serif">Created by Nikita Kozin</text><text x="0" y="120" fill="#000000" font-size="5px" font-weight="bold" font-family="'Helvetica Neue', Helvetica, Arial-Unicode, Arial, Sans-serif">from the Noun Project</text></svg>