<svg xmlns="http://www.w3.org/2000/svg" xmlns:xlink="http://www.w3.org/1999/xlink" version="1.1" x="0px" y="0px" viewBox="0 0 100 125" style="enable-background:new 0 0 100 100;" xml:space="preserve"><polygon points="33.27846,41.43098 32.88053,41.60878 32.69426,41.87971 32.58419,42.14218 32.18626,42.48931   32.18626,42.80257 31.88993,43.16664 32.0254,43.4545 32.0254,43.66616 31.75447,43.85243 31.96613,44.30963 31.98307,44.73296   32.08467,44.88536 32.38947,45.07162 32.42333,45.22402 32.47413,45.34255 32.41486,45.49495 32.18626,45.90982 32.51646,46.51094   32.86359,46.64641 33.08372,46.89194 33.02446,46.97661 32.82126,46.89194 32.62653,46.86654 32.5588,47.06974 32.90593,47.15441   32.99906,47.22214 33.21072,47.3068 33.19379,47.46767 32.99059,47.46767 32.93133,47.92487 33.27846,47.84867 33.51552,47.73014   33.51552,47.57774 33.44991,47.48249 33.46578,47.32374 33.58326,47.36184 34.12935,48.01588 34.12935,48.57151 33.90393,49.0033   34.28175,49.397 34.28175,49.69862 34.37065,50.04152 34.41192,50.28599 34.35795,50.58762 34.5548,50.96226 34.51987,51.09879   34.57067,51.27341 34.67862,51.27341 35.02469,50.98766 35.25012,51.11466 35.28187,51.35596 35.55809,51.35596 35.65651,51.29881   35.90099,51.46074 36.31691,51.28294 36.49471,51.16228 36.82808,51.18769 36.97731,51.29881 37.21225,51.28611 37.37418,51.06069   37.45355,51.06386 37.62817,51.47978 37.62817,52.4164 37.73613,52.38465 38.11077,52.16558 38.47589,51.98143 38.60607,51.90205   38.98072,52.08938 39.05692,52.12113 39.21249,52.11795 39.90146,51.65123 39.91733,51.28611 40.08878,51.31786 40.6317,51.81316   40.82855,51.71473 41.13017,51.62583 41.1778,52.24813 41.51752,52.23225 41.81597,52.02271 42.24776,52.02905 42.80021,52.34338   42.83514,52.16875 42.92086,52.18463 42.95896,52.38148 43.13041,52.61007 43.16851,53.42287 43.38441,53.57844 44.37817,53.06092   45.12429,52.76247 45.66404,52.5307 45.79422,52.39418 45.94661,51.97508 46.14664,51.77188 46.08314,51.39088 46.03869,51.21309   46.16569,51.11148 46.27046,51.20991 46.40381,51.27023 46.47049,51.11466 46.54033,50.67969 46.56256,50.38124 46.76258,50.32092   46.91498,49.99707 46.91498,49.8161 46.77211,49.67005 46.61654,49.64465 46.61971,49.40017 46.69273,49.27317 46.68638,49.10807   46.60701,48.93028 46.41333,48.98743 46.27999,49.0414 46.20378,48.95568 46.30856,48.84773 46.41333,48.72708 46.61336,48.63501   46.83243,48.57151 46.83561,48.34291 47.05468,48.19368 47.27058,48.09843 47.27058,47.93016 47.20708,47.79364 47.15945,47.63489   47.21025,47.52694 47.30868,47.41264 47.36265,47.46026 47.34678,47.67299 47.4071,47.88571 47.59125,47.83809 47.80397,47.76189   48.36594,47.09514 48.46754,47.10149 48.50247,47.15546 48.63899,47.15546 48.63899,46.95544 48.72154,46.95544 48.75012,47.02529   48.87394,47.03482 48.87394,46.95862 48.81362,46.93004 48.72789,46.86337 48.71837,46.73954 48.76599,46.66017 48.84537,46.72367   48.93427,46.64429 48.93427,46.51412 48.65804,46.50142 48.63582,46.36172 48.71837,46.2506 48.72472,46.0601 48.59454,45.94897   48.58184,45.7934 48.79139,45.08221 48.79457,44.89806 48.85807,44.69168 48.99459,44.52023 49.32796,43.87889 49.75658,43.87254   49.75658,43.73602 49.68674,43.67252 49.69308,43.50107 49.83596,43.50424 50.17568,43.71696 50.41063,43.78046 50.6678,43.78364   51.01387,43.71379 51.14722,43.72014 51.30597,43.85984 51.53457,43.63441 51.55045,43.49154 51.6203,43.39312 51.37582,43.32644   50.8583,42.78035 50.617,42.75177 50.06773,42.25648 49.47084,41.60561 49.26447,41.57068 49.24859,41.43098 49.45496,41.39606   49.51846,41.23413 49.68356,41.04681 49.75658,41.04681 49.90899,40.93886 49.34066,40.28164 49.31209,40.07844 49.17556,39.96097   49.15651,39.79587 49.07397,39.653 48.76282,39.33232 48.61994,39.2593 48.35007,39.17992 48.35642,39.10373 48.60407,38.93545   48.79139,38.88148 48.90887,38.95132 48.97554,39.02118 49.02951,38.98307 49.02317,38.71955 48.89299,38.71955 48.74694,38.76083   48.65804,38.8148 48.55644,38.80845 48.31515,38.6243 48.28975,38.50048 48.43897,38.50048 48.51199,38.57351 48.91521,38.57351   48.87077,38.44333 48.71837,38.29093 48.75329,38.20521 48.84537,38.16393 49.04856,38.26236 49.16286,38.26236 49.32479,38.14171   49.32479,37.98931 49.15334,37.85913 48.67392,37.40194 48.65169,37.31304 48.99142,37.21779 48.68662,37.21779 48.27387,36.82727   46.91816,36.76377 46.68003,37.03046 46.16569,36.79869 45.88311,37.04317 45.62594,36.80504 44.94967,37.66864 45.13065,38.69098   44.8195,39.51965 44.43215,39.4244 44.1337,39.80539 44.05115,40.33879 44.27658,40.48484 43.44473,41.03094 43.61301,41.70086   43.31456,41.77705 42.99071,42.63747 41.81597,42.57397 41.29845,43.03435 40.5428,42.87877 39.87923,42.66922 39.96178,42.33585   38.91087,42.33903 38.39334,42.59303 38.31079,43.09785 38.0822,43.24707 37.26623,43.41852 37.03763,43.60584 36.43438,43.2566   35.18027,43.78682 34.58337,43.49154 33.39593,42.2787 33.11654,41.65958 "/><path d="M63.75823,42.55704h0.19473v-0.14393l-0.1524-0.254l-0.3302-0.05927l-0.16933,0.2286l-0.0508,0.1524  l-0.14394,0.0762l-0.31326,0.127l-0.0762,0.11853l-0.05927,0.3048l-0.38099,0.05927l-0.06773,0.11006l-0.05927,0.2032  l-0.254,0.08467l-0.24553,0.11007l-0.1524,0.13546h-0.47413l-0.19473-0.11007l-0.4826-0.01693l-0.37888-0.07726l-0.09525,0.1016  l-0.2794-0.11747l-0.07302-0.04445l-0.2921,0.3175l-0.44132-0.32068l-0.98742-0.15874l-0.33337-0.06985l-0.26352,0.00952  l-0.43179,0.12065l-0.2794-0.26352l-0.01587-0.24765l-0.381,0.13335l-0.37147-0.23495l-0.18415,0.00952l-0.29527,0.40005  l-0.33654,0.66992l-0.13335,0.0508l-0.5461-0.20002l-0.09208,0.1524l-0.28892,0.14287l-0.0508,0.4064l-0.2667,0.0635  l-0.23495,0.38735v0.15557l0.09207,0.2921l0.06033,0.0508l0.00317,0.15557l-0.15557,0.14605L53.23636,46.022v0.22224  l0.15557,0.46037l0.05397,0.14288l0.00953,0.22225l-0.06985,0.06033h-0.11112l-0.01587-0.1524l-0.07938-0.18732l-0.39052,0.43497  l-0.14605,0.1905l-0.13969,0.31432l-0.15557,0.14922v0.85407l0.05397,0.2794v0.27305l-0.27622,0.19367l-0.0762,0.254v0.18732  l-0.08255,0.20638v0.07302l-0.21907,0.3048v0.07938l-0.08572,0.06032l-0.21272,0.0762v0.47307l-0.07937,0.18415l-0.04445,0.24765  l0.04763,0.2032l0.0762,0.26352l0.13969,0.1524l0.1143,0.09842h0.05715l0.34925-0.06985l0.14288-0.0762l0.28575-0.00635  l0.2413,0.31433l-0.00953,0.53657l0.19368,0.28892l0.04128,0.08255l-0.00318,0.70802l-0.05715,0.09842l-0.06985,0.26352  l-0.14287,0.18098l-0.02858,0.63817l-0.14605,0.25717v0.12382l-0.06033,0.10795l-0.00953,0.254l0.09208,0.30162l0.2159,0.14922  l0.1905,0.04128l0.22542,0.1016l0.16193-0.06985l0.06667-0.11113l0.64452-0.04445l0.14605-0.09842l0.0762-0.04762l0.13652,0.13652  l0.0889,0.10477l0.01905-0.40639l-0.09207-0.127l-0.2032-0.18732l-0.0127-0.59372l0.04763-0.10795l0.0762-0.25082l0.09525-0.16827  l-0.00317-0.2032l-0.0635-0.29527l-0.02857-0.78422l-0.04763-0.28575l0.0508-0.1397l0.1397-0.14605l0.00317-0.1143l-0.0635-0.41275  l-0.06985-0.51117l-0.14288-0.10794l-0.1778-0.34608l0.03175-0.14605l0.3048-0.14288l0.33972-0.2159l0.32385-0.20637  l0.13652-0.07938l0.14287,0.06033l0.28892,0.12382l0.21907,0.50482l-0.00317,0.18097l-0.0635,0.20002l-0.0127,0.18733  l-0.28257,0.34607l-0.07302,0.15557l0.07302,0.1651l0.36195,0.31433l0.1778,0.13652l0.1651,0.10795l0.11112,0.22224l0.36829,0.06033  l0.14605,0.07302l0.02857,0.2159l-0.0127,0.21907c-0.03175,0.05927-0.0635,0.11853-0.09525,0.1778  c-0.0381,0.04128-0.0762,0.08255-0.1143,0.12383c-0.01799,0.09207-0.03598,0.18415-0.05397,0.27622  c0.00741,0.09313,0.01482,0.18627,0.02222,0.2794c0.0381,0.04339,0.0762,0.08678,0.1143,0.13017l0.27305,0.09525l0.40322,0.11748  l0.20638,0.00317c0.01764-0.06456,0.03528-0.12912,0.05291-0.19368l0.09313-0.26352l0.2921-0.29527l0.37782-0.10477l0.24659-0.06561  l0.22437,0.0762l0.16933,0.14817l0.11853,0.0127l0.00846-0.0508l-0.11007-0.1016l-0.06773-0.04233v-0.13123l0.0635,0.04763  l0.11007,0.09207l0.1524,0.0508l0.02963-0.08466l0.01693-0.1778l-0.02963-0.16933l-0.01693-0.2286l-0.1397,0.08043l-0.23283-0.00423  l-0.11007-0.1905l-0.04657-0.1016l0.09737-0.17356l-0.30056-0.05503l-0.57573-0.51223l-0.03387-0.09737l0.05927-0.1651  l0.07197-0.24976l0.07196-0.1905l0.24977-0.16087l-0.28786-0.21167l-0.0127-0.11007l0.06773-0.14817l-0.1397-0.09737  l-0.41698-0.30903l-0.06562-0.33867l-0.4318-0.55033l-0.18203-0.18626l-0.23706-0.06138l-0.1905-0.32279l-0.23495-0.28681  l-0.04445-0.1016l0.0508-0.08255l0.127,0.0508l0.22225,0.14605l0.1524,0.1397l0.12065,0.0254l0.0889-0.0508l0.12065-0.1778  l0.0762-0.18415l0.0762-0.127l0.13335,0.03175l0.1397-0.0508l0.15875-0.1397l0.31115-0.1397l0.381-0.1397l0.1397-0.1778  l0.32385-0.43814l0.2794-0.3556l0.12065-0.12065l0.24765-0.0381l0.15875-0.0508l0.127,0.04445l0.2159,0.2286l0.1016,0.08255  l0.08255-0.0762l0.2286-0.3048l-0.0762-0.3175l-0.29845-0.15875h-0.19685l-0.57785,0.08255l-0.09525,0.06985v0.0889l0.1016,0.10795  l-0.08255,0.0635l-0.84454-0.0381l-0.14605,0.00635l-0.36195,0.3175l-0.48895,0.05715l-0.3302-0.0635l-0.05715-0.24765  l-0.14605,0.00635l-0.2667,0.1651l-0.20955,0.27305l-0.2921,0.3556l-0.06985,0.1397l-0.0381,0.19685l-0.52069,0.0762l-0.508-0.0889  l-0.0381-0.2667l-0.0889-0.24765l-0.254-0.31115l-0.17145-0.0127l-0.1651-0.04445l-0.3556-0.43815l-0.00635-0.52069l-0.13335-0.1905  l0.00635-0.3175l0.04445-0.17145l0.0762-0.2921l0.0635-0.20955l0.4699-0.6604l0.2286-0.0381l0.1397-0.06985l0.2159,0.0254  l0.1778,0.0508l0.13335,0.06985l0.1905,0.05715l0.27304-0.0254l0.3175-0.0381l0.48259-0.06985l0.18415-0.05715l0.2667,0.0127  l0.1524,0.0635l0.49741-0.00635l0.29633-0.04445l0.127,0.0508l0.127-0.00635l0.14605-0.05715l0.58419,0.00635l0.14605,0.05715  l0.55244,0.00635l0.27305,0.1397l0.38735,0.20955l0.2413-0.03175l0.2286,0.06985l0.24765-0.0127l0.18415-0.09525l0.4191-0.0635  l0.254-0.06985l0.36195-0.08255l0.3429-0.22225l0.10795-0.24765l0.1524-0.2159l0.0889-0.1524l0.2032-0.1397l0.31115-0.28575  l0.13335-0.22225l0.09525-0.20955l0.0635-0.14605L63.75823,42.55704z"/><polygon points="57.25165,55.65488 57.35324,55.51518 57.60301,55.54481 57.73001,55.71838 57.69614,56.17981   57.49083,56.17981 57.45061,56.02741 57.39981,55.89194 "/><polygon points="45.99106,52.1497 46.20061,51.86078 46.31491,51.82903 46.34031,52.36878 46.44826,52.40688   46.59113,52.24813 46.63876,52.40688 46.54351,52.62278 46.42921,52.53705 46.35619,52.7212 46.41016,52.90535 46.40381,53.03552   46.08314,53.36255 45.99106,53.05457 45.99106,52.86407 45.91804,52.53705 45.91804,52.36878 45.97519,52.24813 "/><polygon points="54.5762,56.92064 54.5762,57.33126 54.52117,57.4752 54.5762,57.61489 54.68203,57.70803   54.76247,57.56833 54.78363,57.31433 54.74976,57.19157 54.62276,56.92064 "/><polygon points="59.18626,48.27623 59.44661,48.53023 59.80221,48.11749 59.91016,48.11749 59.86571,48.26353   59.87206,48.59373 60.04351,48.46038 60.12606,48.28893 60.22766,48.19368 60.36736,48.27623 60.5261,48.30163 60.5896,48.21908   60.5896,48.07303 60.36736,47.95873 60.25306,47.95873 60.17686,48.09208 60.10066,48.17463 60.01176,48.09843 59.94826,48.01588   60.01176,47.92064 59.96731,47.83809 59.46566,47.78728 59.18626,48.14923 "/><polygon points="57.02305,46.40088 57.34055,46.19768 57.51411,46.15535 57.67921,46.27811 57.49294,46.40088   57.23895,46.43475 "/><polygon points="59.66463,53.27999 59.57573,53.40699 59.51646,53.62712 59.71966,53.79222 59.88899,53.79222   60.07103,53.57209 59.98212,53.45779 59.85089,53.43239 "/><polygon points="58.90687,54.60502 58.7079,54.65158 58.4666,54.82092 58.33114,55.04528 58.3904,55.35431   58.33114,55.64218 58.25071,55.87078 58.25071,56.06974 58.55974,56.11631 58.81374,56.17981 58.84337,56.42534 58.9238,56.63912   59.16087,56.5989 59.254,56.30257 59.3683,56.09091 59.78316,56.04011 59.96096,55.84749 59.76199,55.65064 59.5969,55.65488   59.50376,55.69298 59.4699,55.62207 59.51646,55.29928 59.63499,54.87595 59.91862,54.85055 59.96096,54.63465 59.90169,54.39335   59.79374,54.30022 59.5461,54.27482 59.35136,54.30022 59.29633,54.51612 59.3302,54.73202 59.28786,54.96485 59.2413,55.29081   59.15663,55.62524 59.10583,55.76918 58.91533,55.92581 58.81797,55.70991 58.81797,55.47708 59.05927,55.21461 59.05927,55.03682   58.97037,54.85902 "/><polygon points="62.28504,48.77788 62.35489,49.40017 63.11053,49.24142 63.64393,49.12078 63.78998,49.05728   63.91698,49.08903 64.09478,49.13982 64.09478,49.01918 63.99318,48.89218 63.25658,48.82868 63.14228,48.77788 62.63429,48.72708   "/><polygon points="64.29163,49.06363 64.39957,49.22237 65.42192,49.22237 65.84102,49.06363 65.70132,49.00013   64.36359,49.00013 "/><polygon points="65.26529,49.44039 65.37112,49.52505 65.39229,49.83409 65.50658,50.21085 65.26529,49.83832 "/><polygon points="65.54892,51.80046 65.54892,51.94016 65.77752,52.44815 66.07597,52.60055 66.38712,52.772   66.80621,52.94345 67.09196,52.94345 67.4793,52.7339 67.8857,52.5561 67.8857,52.0989 67.66345,52.10526 67.53011,52.00365   67.58725,51.84491 67.5174,51.71791 67.34807,51.62689 67.27822,51.67346 66.90569,51.45121 66.78293,51.52529 66.37441,51.52953   65.95108,51.62901 "/><polygon points="69.16204,51.6925 69.20649,52.29575 69.31444,52.3783 69.37794,52.0989 69.45414,51.9338   69.53669,51.6925 69.62559,51.57186 69.77798,51.61631 69.97484,51.756 70.20343,52.1116 70.27963,52.19733 70.54633,52.19733   70.71778,51.97508 70.86383,51.91476 71.01623,51.76871 71.09243,51.73061 71.20038,51.85126 71.32102,52.00365 71.55598,52.06715   72.00471,52.1751 72.44073,52.16664 72.47037,51.90417 72.79633,51.89571 73.1731,52.00577 73.46096,52.29787 73.70226,52.3783   73.91816,52.4291 74.08325,52.53917 74.29916,52.66193 74.53198,52.78893 74.73942,52.9117 74.90028,52.98367 74.98495,52.9244   75.01881,52.53917 74.96802,52.35714 74.88335,52.20897 74.64205,52.16664 74.57855,51.92957 74.51929,51.72214 74.15099,51.37501   73.90122,51.37501 73.53716,51.37501 73.38476,51.42581 73.26623,51.33268 73.05033,51.24801 72.59737,50.99401 72.18674,50.94744   72.0428,51.00248 71.7634,51.23108 71.61524,51.31151 71.54327,51.19298 71.47977,51.01941 71.39088,51.02364 70.82784,51.06598   69.89229,51.11255 69.60866,51.40887 69.48589,51.53164 "/><polygon points="69.35889,52.6323 69.44779,52.82703 69.72295,52.66193 70.05315,52.52223 69.98965,52.36983   69.86266,52.4037 69.70602,52.5561 69.49435,52.5688 "/><polygon points="70.24365,52.4164 70.24365,52.5688 70.75588,52.5434 70.70508,52.4164 70.49976,52.36983 "/><polygon points="68.26035,48.46673 68.3937,48.80963 68.59689,48.80963 68.85089,48.72708 69.04139,48.75883   69.25729,48.80963 69.51764,48.80963 69.66369,48.63818 69.43509,48.46673 69.07949,48.27623 68.9017,48.13018 68.59689,48.13018   68.43179,48.26988 "/><polygon points="68.86359,47.13324 69.11124,46.99354 68.93344,46.86019 68.73025,46.78399 68.65405,46.58714   68.65405,46.2506 68.47625,46.10455 68.1778,46.10455 68.04762,46.32997 68.18098,46.59667 68.32703,46.86019 68.41592,47.00307   68.53339,46.96179 68.65722,46.87607 68.75882,46.91099 68.8128,47.06974 "/><polygon points="68.0635,46.93322 67.93015,46.95862 67.7968,46.84114 67.88252,46.68239 67.97143,46.76177 "/><polygon points="67.82855,46.45062 67.95555,46.31092 67.95555,46.15852 67.89205,46.01883 67.73648,45.99025   67.71107,46.16487 67.76823,46.24425 67.7714,46.43475 "/><polygon points="70.11453,47.13324 69.74624,46.68239 69.45414,46.16805 69.22554,45.5648 69.14934,45.20921   69.14934,44.69909 69.19379,44.48319 69.43509,44.48319 69.53246,44.44933 69.60019,44.49166 69.91345,44.55939 70.26058,44.61019   70.51035,44.67369 70.63734,44.76682 70.91675,44.85149 70.80668,44.66099 70.66275,44.44933 70.50611,44.35196 70.24789,44.18263   69.87112,43.99636 69.86689,43.89053 69.97272,43.7085 70.18439,43.56457 70.48918,43.4164 70.73471,43.28094 70.80668,42.98037   70.80244,42.72637 70.58231,42.34961 70.25211,42.42157 69.66792,42.9211 69.65522,43.23437 69.38429,43.3148 69.29116,43.52223   69.21496,43.7212 69.10489,43.8355 68.84666,43.81857 68.78739,43.645 68.6858,43.5053 68.80433,43.34867 69.39275,42.81527   69.39699,42.08291 69.17262,41.88395 69.09643,41.82045 69.10912,41.70615 69.30809,41.46908 69.37582,41.35055 69.39699,41.19392   69.29539,41.13889 68.85089,41.62148 68.80856,41.75695 68.6858,41.89664 68.6096,42.04905 68.53763,42.19298 68.46143,42.42157   68.39793,42.64594 68.31326,42.80257 68.31326,43.05657 68.4572,43.3402 68.41063,43.62807 68.46989,43.73813 68.63923,43.80163   68.68156,43.9117 68.53339,44.13606 68.49107,44.22919 68.61806,44.62289 68.71966,44.70332 68.88899,44.81762 68.88476,45.02929   68.82973,45.34679 68.80856,45.89712 68.86359,45.99025 69.14299,46.10455 69.29539,46.42205 69.45203,46.73531 69.66369,46.86654   69.87535,47.01894 "/><polygon points="70.00024,41.34843 70.00024,40.80234 70.27963,40.37054 70.50188,40.45309 70.68603,40.56104   70.57173,41.01189 70.48283,41.26588 70.29234,41.34843 70.05739,41.41193 "/><polygon points="74.14675,49.32397 74.05785,49.17793 74.14675,49.05728 74.01975,48.84773 73.91816,48.76518   73.79116,48.84138 73.39111,48.84138 73.16251,48.98108 72.94662,49.08268 73.02916,49.26048 73.24506,49.36842 73.46731,49.40652   73.68956,49.47002 73.84196,49.38747 "/><polygon points="73.82291,45.83467 73.99435,45.69498 74.08643,45.85055 74.19121,45.89817 74.21661,45.8188   74.13088,45.69498 74.2928,45.62513 74.48648,45.57115 75.4231,45.5521 75.79457,45.78387 75.77234,46.0982 75.16592,46.0982   74.98177,46.28235 74.7627,46.18392 74.61665,45.99342 74.44521,46.15852 74.35313,46.06645 74.15311,46.01883 74.0007,45.91722 "/><polygon points="74.2293,47.13324 74.369,47.26024 74.6611,47.16499 75.00717,47.08879 75.00717,46.95227   74.69285,47.03482 74.50552,47.05069 74.4325,46.99037 74.34678,47.07609 "/><polygon points="74.66745,47.43169 74.88017,47.28246 75.07384,47.24437 75.45484,47.50471 75.37865,47.86348   75.40405,47.91746 75.70884,47.79364 75.79457,47.49519 75.85807,47.10625 76.29304,46.95227 77.04551,46.82844 77.42651,46.44744   77.98212,46.18075 78.37582,46.18075 78.75047,46.22837 79.10925,46.38712 79.41087,46.53952 79.66804,46.62207 80.00459,46.90464   81.17933,46.91734 81.32538,47.13324 81.35395,47.60631 81.5762,47.86666 81.6397,48.16828 81.4238,48.58421 81.35078,48.82233   81.40157,48.95885 81.4492,49.32397 81.40793,49.68275 81.6397,50.17169 81.89053,50.70826 82.05562,50.98449 82.24612,50.98449   82.24612,50.67017 82.19215,50.41616 82.23342,50.30187 82.39852,50.32727 82.46202,50.43204 82.52552,51.00036 82.56044,51.26389   82.76364,51.30833 82.83031,51.43216 82.90969,51.67346 82.98271,51.89888 83.19226,52.02905 83.68439,52.07033 84.20825,52.07033   84.52575,51.61631 84.69402,51.45438 84.9512,51.37819 85.04962,51.16546 85.12265,50.94639 85.20414,50.76542 85.35654,50.93475   85.58937,51.18028 85.75447,51.37078 85.88993,51.37924 85.8095,51.22261 85.66134,51.01518 85.48354,50.85431 85.33114,50.73155   85.3904,50.67228 85.57243,50.65112 85.6571,50.35478 85.78834,49.96955 86.0889,49.85949 86.28786,49.84679 86.55033,49.92299   86.75352,49.89759 87.0033,49.75789 87.28269,49.66052 87.49012,49.50389 87.49012,49.22026 87.31232,49.01283 87.40969,48.89853   87.67638,48.85619 88.26905,48.55563 88.64158,48.34396 89.06915,48.54293 89.52634,48.77153 89.96661,48.91969 90.4111,49.05093   90.74976,49.37266 91.27046,49.52505 91.63029,49.66899 92.02399,49.82562 92.40075,50.05422 92.64205,50.16852 92.96802,50.12195   93.36594,50.10502 93.90357,50.24472 94.40734,50.40135 94.4539,50.57915 94.94497,50.61725 94.94497,57.87736 94.6571,58.60126   95,59.00765 95,63.47802 94.75447,63.26212 94.52164,63.06316 94.11101,62.71179 94.02211,62.49166 92.97225,61.52647   92.89182,61.391 92.52352,61.4164 92.15522,61.56033 91.98589,61.61113 91.74036,61.51377 91.47366,61.3529 91.18156,61.4799   91.01646,61.67887 90.96143,61.88206 90.86829,61.80163 90.78786,61.6323 90.6905,61.63653 90.74976,61.7593 90.82173,61.90323   90.7286,62.00906 90.25024,61.93287 90.13593,61.81433 90.00471,61.85667 89.6872,62.04293 89.06915,61.94556 88.46802,62.03446   88.41298,61.90746 88.56538,61.48837 88.77705,61.02271 88.92097,60.74754 89.46284,60.21414 89.74648,60.09138 90.68203,60.09561   90.94026,60.39618 91.21966,60.38771 91.19003,60.21414 90.9572,60.19721 90.881,60.01941 90.78786,59.87125 90.57197,59.77388   90.5889,59.67651 90.96566,59.69768 91.28316,59.73155 91.31702,59.61725 91.13076,59.55375 90.93603,59.55798 90.69473,59.48178   90.27563,59.18545 90.27987,59.04998 90.38993,59.02035 90.43227,58.87219 90.49577,58.68592 90.4365,58.43616 89.97084,58.00013   89.83114,57.66146 89.76764,57.3736 89.67027,57.14923 89.60677,56.97144 89.45861,56.82327 89.36124,56.77247 89.30621,56.66664   89.23425,56.35337 89.15381,56.21367 88.26482,55.50671 87.82455,55.34161 87.65099,55.24425 87.23189,55.16805 87.07526,55.01988   86.60536,54.98178 86.30057,54.82938 86.02116,54.68122 85.48777,54.54575 85.02634,54.23249 84.21355,54.12242 83.68015,54.19016   83.46425,54.16899 83.24835,54.02082 83.05362,53.86419 82.99012,53.74566 82.77846,53.66099 82.58796,53.57209 82.55409,53.17416   82.41439,53.19956 82.21543,53.36889 82.1223,53.31386 82.10113,53.15723 81.88947,53.153 81.82597,53.2546 81.5635,53.05563   81.4619,52.97943 81.40263,52.8609 81.3095,52.9625 81.08514,53.0133 81.02587,52.74237 80.94121,52.5307 80.87347,52.4164   80.80151,52.6069 80.71261,52.65347 80.6618,52.45027 80.58138,52.30634 80.58138,52.19204 80.65334,51.74754 80.75917,51.69674   80.93697,51.46814 80.93274,51.24378 80.86501,51.19298 80.78457,51.29457 80.52211,51.58244 80.48824,51.93804 80.42898,52.17087   80.34854,52.39947 80.02681,52.73813 80.06915,52.88206 80.11571,52.97096 79.75588,53.41969 79.31561,53.51283 79.19708,53.48743   78.93462,53.2165 78.77375,52.75507 78.78645,52.6577 79.01929,52.6069 78.94732,52.2132 78.79069,51.78141 78.71872,51.8576   78.55785,51.84914 78.46896,51.76447 78.41393,51.61631 78.14299,51.34961 77.93133,51.26918 77.78739,51.12948 77.5715,51.13371   77.53339,51.21838 77.36829,51.18028 77.34713,50.88818 77.59266,50.73578 78.04986,50.79928 78.52822,50.92628 78.77375,50.92628   79.43415,50.27435 79.84055,50.27858 79.92521,50.35478 79.94215,50.49025 80.01834,50.48178 80.03528,50.39712 80.14111,50.40135   80.25964,50.51988 80.53057,50.53258 80.56867,50.60032 80.64487,50.46908 80.75494,50.51988 80.80997,50.37172 80.9793,50.16005   80.94543,49.92722 80.8269,49.73249 80.50941,49.76212 80.35701,49.76212 80.31044,49.59702 80.17921,49.54199 80.10301,49.60126   80.19191,49.73249 80.29351,49.82139 80.11148,49.83409 79.81091,49.76212 79.40875,49.76635 78.98542,49.88912 78.69756,49.96955   78.46896,49.77059 78.38429,49.71979 77.96519,49.93569 77.7112,49.77059 77.55879,49.70285 77.3429,49.46579 77.1651,49.17793   77.21166,48.98319 77.33443,48.84349 77.19897,48.7165 76.9111,48.57256 76.28457,48.29317 76.09407,48.3355 75.98824,48.2339   75.86548,48.33973 75.26012,48.24237 75.32362,48.0561 75.04845,48.0561 74.95108,47.9291 74.81561,47.70897 "/><polygon points="81.4619,57.30587 81.6905,57.43287 81.83443,57.36937 81.83443,56.84867 81.73283,56.764   81.87676,56.6116 82.19849,56.28987 82.45249,56.22214 82.49483,56.33221 82.49483,56.45074 82.49483,56.51847 82.63029,56.52694   82.68956,56.62854 82.61336,56.7894 82.68956,56.92487 82.68956,57.5514 82.46096,58.00013 82.28316,58.28799 82.15616,58.28799   82.07573,58.59279 81.77094,58.97379 81.63123,58.94839 81.3222,58.77059 81.40687,58.30916 81.44073,58.14829 "/><polygon points="83.94473,46.75224 84.14793,47.06974 84.41463,46.98084 84.63688,47.02529 84.83372,47.64124   85.28457,47.78728 85.50047,47.78728 85.79892,47.60314 85.65287,47.52694 85.44967,47.48884 84.87183,46.86019 84.71307,46.86019   84.47178,46.81574 84.02094,46.72049 "/><polygon points="84.17333,48.73343 84.87183,48.93663 85.38617,49.03188 85.79892,49.12712 86.02116,49.12712   86.24976,49.01283 86.63712,48.93028 86.46566,48.86678 85.86877,48.82233 85.58937,48.73343 85.07502,48.73343 84.66228,48.69533   84.22413,48.65723 "/><polygon points="78.53457,56.49307 78.53457,56.70262 78.69332,57.05822 78.85207,56.82327 78.75047,56.62642   78.64252,56.49307 "/><polyline points="79.13147,56.69627 79.13147,56.59467 79.30292,56.37242 79.37911,56.16287 79.46166,56.00412   79.53152,56.22214 79.39816,56.44227 79.13147,56.72802 "/><polygon points="75.5628,61.05869 75.8168,61.25554 76.48988,60.46814 76.54704,60.43004 76.61053,60.07444   76.69308,59.68075 76.69308,59.55375 76.47084,59.5093 75.71519,60.38242 75.69614,60.62689 75.5628,60.65864 "/><polygon points="72.88947,61.29998 73.02281,61.03329 72.75611,60.88089 72.64182,60.94439 72.64182,61.14759   72.74976,61.25554 "/><polygon points="65.21237,60.81104 65.25047,61.14759 65.52987,60.97931 65.85371,61.03964 66.13947,61.01424   66.40616,61.14759 66.53316,60.97931 66.63476,60.76024 66.76811,60.76024 66.85701,60.70309 67.04751,60.75389 67.04751,60.63959   66.69191,60.39829 66.49506,60.51259 66.12994,60.61419 65.66957,60.70944 65.30127,60.74119 "/><polygon points="62.49459,61.50953 62.43109,61.78893 62.43109,62.09373 62.62159,62.06198 63.02799,61.99848   63.56138,61.94133 63.64393,61.72543 63.64393,61.60478 62.98354,61.57303 62.60254,61.50953 "/><polygon points="61.89981,62.14453 62.15804,61.84396 62.07338,61.5942 61.81091,61.83126 61.54422,61.97943   61.46801,62.09373 61.69238,62.14453 "/><polygon points="60.98119,61.7339 60.95578,62.00483 60.79492,62.07256 60.65945,62.14453 60.65945,62.30116   60.41816,62.30116 60.04562,62.30116 60.10912,62.1657 60.24036,62.04716 60.43932,62.01753 60.64252,61.98367 60.90922,61.7339 "/><polygon points="60.10066,61.99636 60.17686,61.80163 59.89746,61.7339 59.69849,61.80163 59.51646,61.7339   59.40216,61.54763 59.2921,61.39947 59.1143,61.56457 59.1651,61.5942 59.32597,61.5942 59.3556,61.77623 59.28363,61.89053   58.97883,61.92863 58.75024,62.01753 58.60207,62.2038 58.60207,62.41123 58.30997,62.47896 58.03057,62.47896 57.59878,62.17416   56.90875,62.22919 56.76058,62.39853 56.70979,62.47896 56.57008,62.47896 56.46002,62.34349 56.18062,62.17416 55.79116,62.05563   55.32549,61.93921 54.881,61.7339 54.13594,61.85667 53.80997,62.13183 53.46708,62.2673 53.38664,62.44933 53.38664,62.76682   53.55597,62.91076 53.61524,62.84303 53.84384,62.83879 54.03857,62.91076 54.22907,62.85149 54.49577,62.88112 54.7667,62.91076   55.1096,62.87689 55.38476,62.87266 55.49059,63.05892 55.88852,63.05892 56.29069,62.98272 56.38382,62.82186 56.64205,62.77953   56.89182,62.84726 57.12888,62.96579 57.33631,62.90229 57.57761,62.81762 57.81044,62.69486 57.99247,62.64829 58.18721,62.68216   58.33537,62.72449 58.50047,62.61866 58.71637,62.53399 59.0254,62.47049 59.15663,62.37736 59.1905,62.18686 59.37676,62.01753   59.52069,61.89476 59.6604,62.01753 59.87524,62.03341 "/><polygon points="61.62465,63.87595 62.25117,64.18075 62.47977,63.57962 62.74224,63.52882 63.14864,63.27482   63.39417,63.12242 63.50423,63.33409 63.85983,63.32562 63.85983,63.57962 63.5635,63.56269 63.6905,64.13841 63.4365,64.39241   63.1317,64.79034 62.74224,65.16287 62.27658,65.51847 62.00565,65.51847 61.6818,65.55445 61.07855,65.891 60.8309,65.891   60.59595,65.77036 60.64676,65.63065 60.7928,65.4719 61.0214,65.45921 61.06585,65.33855 60.98119,65.23061 60.8436,65.05281   60.9198,64.67181 61.0595,64.36701 61.19285,64.17651 "/><polygon points="59.35772,66.77364 59.26881,66.9959 59.55456,66.95779 59.82761,66.88477 60.05621,66.77364   60.18956,66.5387 60.34831,66.24025 60.07526,66.3863 59.80856,66.55775 "/><polygon points="55.24294,65.45921 55.30644,65.35126 55.18579,65.13536 55.00165,65.02106 54.9064,64.74166   54.7286,64.66546 54.5127,64.51306 54.30315,64.57021 54.0555,64.34796 53.78881,64.10031 53.63006,63.97966 53.31256,63.97966   53.24906,64.06222 53.09666,64.00507 52.10924,63.97966 51.69967,64.28129 51.64887,64.37019 51.81397,64.56068 51.98542,64.59879   52.34101,64.70356 52.76011,64.67499 52.84901,64.74801 53.04903,64.83056 53.21096,64.99883 53.46178,65.13853 53.62688,65.20838   53.85231,65.45921 54.0301,65.65923 54.29998,65.72591 54.45872,65.72591 54.6651,65.64336 54.9699,65.5735 "/><polygon points="51.64887,61.85878 51.80762,62.64618 51.72824,62.69698 51.6203,62.56998 51.38535,62.643   50.71543,62.98272 50.47413,62.643 50.37253,62.6303 50.10583,62.90017 49.52481,63.11607 49.36924,63.0113 48.94379,63.19545   48.74059,63.19545 48.55327,63.29387 48.37547,63.28117 48.24212,63.19545 48.1183,63.23672 47.93732,63.42722 47.7119,63.34785   47.39758,63.23672 47.32138,63.10655 47.3436,62.70332 47.42298,62.43028 47.79445,62.20803 48.0929,62.01435 48.31197,62.12548   48.4739,62.15723 48.61677,62.11278 48.99776,62.1223 49.08031,62.36678 49.31209,62.65887 49.87724,62.66205 50.18521,62.57315   50.31221,62.46203 50.26141,62.31598 50.10266,62.2874 49.81056,62.07468 49.65499,62.05246 49.50259,61.96355 49.27081,61.69686   49.28351,61.54446 49.50259,61.42698 49.83596,61.42698 50.21378,61.85243 50.42968,61.96038 50.54081,61.89688 50.79163,61.74766   50.95355,61.83338 51.13453,61.95403 51.2901,61.89371 51.52505,61.85243 "/><polygon points="48.84854,61.89053 48.94379,61.80163 49.02951,61.61749 48.99459,61.52223 48.74694,61.59843   48.80727,61.68733 "/><polygon points="45.6524,62.81762 46.1731,62.93616 46.59642,63.11819 46.83349,62.69062 47.15099,62.22496   47.23142,62.07256 47.23142,61.89053 46.93085,61.75507 46.35089,61.75507 46.06303,62.04293 45.98683,62.54669 45.94873,62.71179   45.70743,62.72873 "/><polygon points="44.17921,62.59326 44.39088,62.59326 44.52634,62.38583 44.91157,62.19956 45.0809,62.11489   45.0809,61.92863 44.97931,61.75507 44.68297,61.52223 44.06915,61.4037 43.89558,61.48837 43.61195,61.62383 43.43415,61.59843   42.87959,61.44603 42.93462,61.78046 43.04892,61.95826 43.31562,62.0895 43.56961,62.153 43.83208,62.27153 44.03104,62.43663 "/><polygon points="42.87959,62.73296 42.99812,62.69909 42.99812,62.55939 42.73565,62.33503 42.59172,62.03446   42.52822,61.87783 42.59172,61.75507 42.65945,61.43333 42.76317,61.1243 42.73989,60.89571 42.42239,60.81104 42.09219,60.64171   41.97366,60.48931 41.60536,60.64171 40.81374,60.6925 40.63594,60.83221 40.40734,60.72637 39.95438,60.56974 39.71731,60.51048   39.58184,59.84585 39.45061,59.74001 39.24741,59.67651 39.22625,59.34632 39.07385,59.21508 38.76905,59.06692 38.13829,59.06692   37.94779,58.90605 37.61336,58.83832 37.35513,58.78329 37.14769,58.60126 36.87253,58.64359 36.45343,58.64782 36.08514,58.16099   35.8269,58.16099 35.78034,58.09326 35.61947,58.09326 35.34854,58.36419 35.28504,58.70709 35.08184,58.96955 34.93791,59.15158   34.79398,59.16428 34.72625,59.22355 34.68391,59.13889 34.50188,59.05422 33.91345,59.07115 33.83725,59.11348 33.76952,59.04998   33.46049,58.96532 33.26576,58.91875 32.75353,59.01612 32.60113,59.06269 32.48683,59.01189 32.19473,58.82562 32.00846,58.84679   31.68674,58.91029 31.4539,58.85949 31.17451,58.68169 31.14487,58.43192 31.08137,58.21603 30.86547,58.02976 30.72578,57.96626   30.56491,57.79693 30.45908,57.79693 30.27705,57.91546 30.05268,57.79693 29.79868,57.67839 29.50659,57.78423 29.36265,57.73343   29.24835,57.63183 28.99012,57.44133 28.83349,57.22543 28.69379,57.22543 28.62606,57.26353 28.39746,57.2593 28.32126,57.1577   28.16039,57.26777 28.1096,57.4244 27.85983,57.47943 27.5762,57.4371 27.29257,57.3482 26.98777,57.272 26.74647,57.23813   26.61101,57.3101 26.45437,57.30587 26.23424,57.0815 26.12841,57.16193 25.98448,57.4371 25.90405,57.62336 25.84901,57.9451   25.67756,58.11654 25.45955,58.32397 25.38758,58.48907 25.23095,58.77271 25.26058,58.88912 26.33584,58.89759 26.73589,59.1537   27.23754,59.18122 27.23119,59.48602 26.96237,59.90723 27.19097,60.03635 28.12441,60.10408 29.11924,60.22896 29.49389,60.47661   29.79233,60.62901 30.23683,60.756 30.91416,60.83221 31.10042,60.75177 31.32055,60.57609 31.71848,60.57186 32.02752,60.70521   32.16722,60.67981 32.24553,60.55492 32.61806,60.55492 32.93768,60.68616 33.25517,60.76024 33.55362,60.84067 33.84784,60.91687   34.25846,61.04387 34.71778,61.27882 35.08396,61.43122 35.26599,61.52012 35.69567,61.60902 36.10419,61.69157 36.30315,61.7212   36.5635,61.67252 36.8302,61.75507 37.34878,61.86937 37.51811,61.71696 37.66839,61.69157 38.08749,61.79951 38.81773,61.95403   39.27705,62.07045 39.60301,62.0006 40.02422,61.85032 40.22954,61.7339 40.37982,61.72332 40.64228,61.83973 40.96825,62.09161   41.29845,62.16781 41.6096,62.26094 41.88264,62.40276 42.55997,62.45568 "/><polygon points="41.91439,59.03728 40.45814,59.03728 40.31844,59.08809 39.73001,59.06269 39.36171,59.29552   39.40828,59.43521 39.64111,59.58762 40.04327,59.67228 40.86877,59.67228 41.11007,59.54951 41.25823,59.45638 41.4953,59.49871   41.68156,59.51988 41.7366,59.32515 41.91439,59.13889 "/><polygon points="25.60771,56.92064 25.71355,56.73014 25.80245,56.53964 25.88288,55.88348 25.88288,55.52788   25.88288,54.63465 25.93791,54.43145 25.87018,54.18169 25.85324,53.87689 25.77281,53.69062 25.85748,53.42816 26.00564,53.10643   25.92945,52.89053 25.80668,52.57727 25.91251,52.31057 26.21308,51.83644 26.31891,51.8068 26.31891,51.62054 26.23848,51.45544   26.06914,51.37501 25.75588,51.22684 25.71355,50.86278 25.60771,50.82045 25.41298,50.62148 25.34948,50.23625 25.29022,50.16005   24.64252,50.11348 24.13029,50.04575 23.92286,50.14735 23.71119,50.17275 23.62653,50.13042 23.62653,49.98648 23.90169,49.75789   23.90169,49.47425 23.55033,49.47425 23.21166,49.19909 23.10583,48.80116 23.02963,48.15347 22.9619,47.9164 23.00423,47.79787   23.0127,47.69627 22.74177,47.59044 22.62747,47.53117 22.40734,47.4973 21.78504,47.43804 21.39981,47.12477 21.25588,47.07821   21.15428,46.77764 21.09501,46.61255 21.09501,46.44321 21.39558,46.18921 21.49294,46.13842 21.70884,46.10878 21.64534,45.98602   21.12041,45.95215 21.03998,45.86749 21.39981,45.49919 21.73848,45.44415 21.78504,45.33409 21.73424,45.13935 21.67074,44.92769   21.55644,44.77953 21.31938,44.67793 21.07808,44.48743 20.91298,44.37736 20.76905,44.51283 20.51505,44.69909 20.25259,44.81762   19.96896,44.98696 19.90546,44.94462 19.96049,44.81762 20.10865,44.69909 20.25259,44.64406 20.37535,44.52976 20.33725,44.32656   20.13829,44.20803 19.88429,44.04293 19.36783,44.00483 18.99953,43.6958 18.75823,43.4926 18.63123,43.15817 18.6016,42.80257   18.26294,42.49354 17.89887,42.20991 17.54327,42.23531 17.32738,42.15911 17.11571,42.11678 17.03951,41.76118 16.94638,41.52835   16.59501,41.17275 16.28175,40.91452 15.98965,40.98225 15.98965,41.32092 16.13358,41.46485 16.12512,41.59608 15.98965,41.51565   15.84572,41.34208 15.53669,41.16852 15.24036,41.02882 15.02023,40.58009 14.78739,40.14829 14.68579,40.27529 14.61806,40.35572   14.508,40.19486 14.3556,39.73343 14.18203,39.50483 13.8095,39.2085 13.61054,39.10266 13.24647,38.79787 12.95437,38.637   12.71731,38.39994 12.46754,38.31104 12.25588,38.18404 11.97225,38.05281 11.80715,37.96391 11.34572,37.49825 10.96896,37.37125   10.82502,37.40511 10.82502,37.31198 10.91392,36.99871 10.98166,36.75742 10.76152,36.53728 10.46943,36.53728 10.39746,36.25789   10.24929,35.86842 10.0207,35.70332 9.65663,35.33926 9.48307,35.11913 9.12747,35.26306 8.865,35.30116 8.45861,35.11913   7.98448,35.09796 7.52728,35.18686 7.26058,35.22496 7.09548,35.09796 6.70602,34.98367 6.50282,34.90746 6.26152,34.70427   6.15569,34.52647 5.92709,34.4799 5.60536,34.38677 5.3683,34.38677 5.19897,34.4418 5.0635,34.56457 5,34.85243 5.07197,35.12336   5.23706,35.49166 5.37253,35.91076 5.66886,36.23249 6.27422,36.81668 6.53246,37.07492 6.72295,37.15958 6.96425,37.46014   7.24788,37.80304 7.55691,38.03587 7.79398,38.03587 7.95061,37.98507 8.15804,38.10784 8.48824,38.4338 8.61101,38.637   8.74647,38.9037 8.9666,39.0942 9.19944,39.47096 9.31374,39.61066 9.5127,39.68263 9.69897,39.8308 9.7667,40.13559   9.8175,40.72402 9.9318,40.81715 10.00376,40.52505 10.10113,40.27106 10.16039,40.02553 10.24506,39.91123 10.30433,40.00436   10.24083,40.23296 10.20696,40.77905 10.06303,40.84679 10.10536,40.94415 10.27469,40.91875 10.47789,40.97802 10.77846,41.18545   11.05362,41.32515 11.33725,41.49448 11.58702,41.74425 11.81138,41.99825 12.03151,42.07868 11.95108,42.42157 12.01458,42.70521   12.17545,43.11584 12.33208,43.48413 12.56068,44.04293 12.70038,44.48743 12.76388,44.91499 13.17874,44.97425 13.5047,45.21555   13.7968,45.45262 13.95343,45.68122 13.9746,45.92252 14.2032,46.17228 14.49953,46.50671 14.93556,46.95544 15.02869,47.14171   15.09643,47.34067 15.17262,47.67087 15.32502,47.87407 15.51552,48.0688 15.53246,48.36937 15.62982,48.58103 15.88805,48.92816   16.09125,49.25412 16.14628,49.90605 16.42145,50.35055 16.70508,50.68075 16.91251,50.75271 17.11571,51.09138 17.41628,51.55281   17.70837,51.88301 17.86077,52.05234 18.0428,52.12854 18.31373,52.35714 18.78363,52.75507 18.82596,52.90746 18.97413,53.1276   19.21119,53.41546 19.71919,53.90652 20.05786,54.21132 20.26529,54.33832 20.49389,54.45262 20.67592,54.57539 20.93838,54.76165   21.13311,55.01988 21.42945,55.15112 21.70884,55.30351 21.91628,55.40088 22.11947,55.66758 22.40734,56.00201 22.7333,56.32797   23.02117,56.62007 23.254,56.8529 23.39793,57.01377 23.55033,57.03917 23.5588,56.7767 23.44873,56.60737 23.32596,56.47614   23.38946,56.34067 23.53763,56.26871 23.69426,56.39994 23.96519,56.56927 24.17686,56.70473 24.32926,56.70897 24.45625,56.5989   24.60019,56.45921 24.69332,56.31527 24.84149,56.37454 25.11242,56.50577 25.34948,56.65817 25.48071,56.82327 "/><polygon points="24.49012,49.43192 24.56632,49.27953 24.88805,49.06786 24.98965,48.68686 25.23518,48.51753   25.42991,48.66993 25.64158,48.77999 25.69238,48.72919 25.69238,48.58526 25.99718,48.51753 26.22578,48.76306 26.37818,48.97473   26.47131,49.31339 26.52211,49.65205 26.63006,49.91452 26.80151,50.28599 27.30315,50.39712 27.6016,50.56539 27.47778,50.82574   27.3476,51.05434 27.3603,51.27658 27.54762,51.36866 27.49365,51.51153 27.34443,51.47661 27.246,51.51153 27.14123,51.45438   27.02693,51.28294 26.87136,51.20673 26.49988,51.05434 26.18238,50.90194 26.04586,50.79716 25.97284,50.48602 26.04586,50.35266   25.98236,50.16852 25.82996,49.86689 25.46484,49.5367 25.31244,49.4732 25.05844,49.55257 24.88064,49.61607 24.62982,49.56527 "/><polygon points="29.24835,51.10831 29.38382,50.93051 29.42615,50.62571 29.74365,50.55798 29.97225,50.51988   30.22625,50.64688 30.47601,50.8141 30.61994,51.10831 30.53528,51.39194 30.44214,51.61631 30.01881,51.67981 29.89182,51.56974   29.77752,51.51153 29.70978,51.63324 29.43462,51.73907 29.34572,51.40887 29.30762,51.20144 "/><polygon points="14.3175,50.45638 14.41486,50.98131 14.74929,51.07444 14.80433,51.34538 14.96096,51.57397   15.09643,51.76024 15.18532,51.6925 15.29539,51.46814 15.19802,51.32844 14.96096,51.06174 14.64346,50.73578 14.41486,50.48178   "/><polygon points="13.51317,49.54622 13.51317,49.75789 13.67827,49.84255 13.90687,50.03305 13.95343,49.99495   13.83913,49.74096 13.71214,49.52505 "/><polygon points="12.61994,49.00013 12.72154,48.91546 12.88241,48.91546 12.78928,48.47943 12.70038,48.26353   12.54798,47.99683 12.34055,47.6116 12.24741,47.46344 11.95955,47.37454 11.79022,47.37454 11.72248,47.50577 11.64205,47.79364   11.72248,48.02223 11.89605,48.25083 12.06538,48.49636 12.24318,48.70803 12.42098,48.82233 "/><polygon points="11.17215,46.50248 11.43885,46.42628 11.54468,46.10878 11.51929,45.91828 11.35842,45.68545   11.21449,45.49072 11.11289,45.55845 11.25682,45.77858 11.32879,45.95215 11.26105,46.08338 11.18485,46.29081 "/><polygon points="9.9572,44.32233 10.19426,44.25036 10.19426,43.7974 10.2239,43.38677 9.9572,43.1116   9.70743,42.88301 9.35607,42.57397 9.21214,42.43851 8.98777,42.65017 8.73801,42.62054 8.7761,42.76024 8.992,42.96767   9.14017,43.19204 9.27563,43.47144 9.48095,43.66616 9.67356,43.772 9.80056,44.00906 9.88946,44.17839 "/><polygon points="7.18438,40.80445 7.40875,40.63935 7.15052,40.41076 6.87112,40.20332 6.76529,40.24989   6.50282,39.99589 6.13029,39.7546 5.96519,39.95779 6.04563,40.14406 6.30809,40.27953 6.41816,40.36842 6.65522,40.44462   6.87535,40.52082 7.02352,40.65629 "/><polygon points="17.23213,41.93263 17.14958,41.77388 17.14958,41.48178 17.54327,41.31033 17.82267,41.58973   17.82267,41.90723 17.56867,42.07868 17.32103,41.99613 "/><polygon points="18.40687,42.31998 18.57832,42.17393 18.99106,42.35807 19.23236,42.57397 19.39746,42.83432   19.36571,43.14547 19.34031,43.34232 19.53716,43.47567 19.70861,43.36137 19.85466,43.21532 20.1912,43.31692 20.496,43.53917   20.496,43.80587 20.2547,43.99636 19.98801,43.89476 19.66416,43.86937 19.38476,43.86937 19.23871,43.74871 18.97836,43.49472   18.81326,43.31692 18.74977,43.08514 18.74341,42.86607 18.68627,42.66922 18.40687,42.49778 "/><text x="0" y="115" fill="#000000" font-size="5px" font-weight="bold" font-family="'Helvetica Neue', Helvetica, Arial-Unicode, Arial, Sans-serif">Created by Marvdrock</text><text x="0" y="120" fill="#000000" font-size="5px" font-weight="bold" font-family="'Helvetica Neue', Helvetica, Arial-Unicode, Arial, Sans-serif">from the Noun Project</text></svg>