<svg xmlns:dc="http://purl.org/dc/elements/1.1/" xmlns:cc="http://creativecommons.org/ns#" xmlns:rdf="http://www.w3.org/1999/02/22-rdf-syntax-ns#" xmlns:svg="http://www.w3.org/2000/svg" xmlns="http://www.w3.org/2000/svg" xmlns:sodipodi="http://sodipodi.sourceforge.net/DTD/sodipodi-0.dtd" xmlns:inkscape="http://www.inkscape.org/namespaces/inkscape" version="1.1" viewBox="0 0 99.999997 124.999995" xml:space="preserve" x="0px" y="0px"><path d="M 50,4.9999962 A 44.999293,44.999293 0 0 0 5,49.999996 a 44.999293,44.999293 0 0 0 45,45 44.999293,44.999293 0 0 0 45,-45 A 44.999293,44.999293 0 0 0 50,4.9999962 Z m -5.114147,14.2252998 10.671781,0 0,6.394085 c 4.417725,0.376527 7.408428,1.478265 9.279566,2.357786 l 1.403442,0.662426 -2.526197,9.509728 -0.645583,2.138849 -2.032187,-0.971184 c -1.767662,-0.847904 -4.716915,-2.267963 -9.330089,-2.267963 -1.577964,0 -4.232784,0.289759 -4.232784,2.178143 0,1.437125 3.892859,3.042036 7.258607,4.266467 9.168862,3.207664 13.080089,7.714762 13.080089,15.078594 0,7.194252 -4.810554,12.611991 -12.614145,14.500375 l 0,7.702094 -10.671782,0 0,-6.961075 c -4.041197,-0.36503 -8.236077,-1.473189 -11.081587,-3.048279 l -1.263098,-0.696109 3.076347,-12.013471 2.105165,1.150821 c 1.968862,1.080719 6.007904,2.891095 10.868263,2.891095 2.49485,0 5.013099,-0.784269 5.013099,-2.531814 0,-1.175568 -0.768189,-2.524446 -6.315494,-4.395584 -6.530299,-2.201676 -14.023204,-5.85759 -14.023204,-14.736153 0,-6.886706 4.56997,-12.131138 11.979791,-14.056886 l 0,-7.151945 z" style="color:#000000;clip-rule:nonzero;display:inline;overflow:visible;visibility:visible;opacity:1;isolation:auto;mix-blend-mode:normal;color-interpolation:sRGB;color-interpolation-filters:linearRGB;solid-color:#000000;solid-opacity:1;fill:#000000;fill-opacity:1;fill-rule:nonzero;stroke:none;stroke-width:1;stroke-linecap:square;stroke-linejoin:miter;stroke-miterlimit:4;stroke-dasharray:none;stroke-dashoffset:0;stroke-opacity:1;marker:none;color-rendering:auto;image-rendering:auto;shape-rendering:auto;text-rendering:auto;enable-background:accumulate"/><text x="0" y="114.999996" fill="#000000" font-size="5px" font-weight="bold" font-family="'Helvetica Neue', Helvetica, Arial-Unicode, Arial, Sans-serif">Created by Vignesh Nandha Kumar</text><text x="0" y="119.999996" fill="#000000" font-size="5px" font-weight="bold" font-family="'Helvetica Neue', Helvetica, Arial-Unicode, Arial, Sans-serif">from the Noun Project</text></svg>