<svg xmlns="http://www.w3.org/2000/svg" version="1.0" viewBox="0 0 2048 2560" preserveAspectRatio="xMidYMid meet" x="0px" y="0px"><metadata>
Created by potrace 1.16, written by Peter Selinger 2001-2019
</metadata><g transform="translate(0.000000,2048.000000) scale(0.100000,-0.100000)" fill="#000000" stroke="none"><path d="M9705 20179 c-55 -5 -147 -14 -205 -21 -63 -7 -259 -12 -490 -13 -392 -1 -426 -4 -470 -40 -8 -7 -30 -16 -47 -20 -18 -3 -35 -11 -39 -16 -3 -5 -29 -24 -58 -43 -94 -60 -192 -201 -211 -301 -4 -22 -11 -45 -16 -52 -6 -6 -14 -64 -19 -130 -5 -65 -11 -143 -14 -173 -5 -65 -24 -167 -36 -195 -5 -11 -13 -96 -19 -189 -6 -93 -15 -174 -21 -181 -5 -6 -14 -84 -20 -173 -5 -89 -14 -169 -19 -179 -13 -23 -29 -142 -41 -298 -5 -66 -14 -142 -20 -170 -16 -71 -29 -178 -30 -260 0 -38 -7 -88 -15 -110 -8 -22 -18 -89 -21 -150 -9 -141 -21 -164 -95 -185 -30 -9 -65 -21 -79 -27 -41 -18 -172 -69 -220 -86 -25 -9 -61 -21 -80 -28 -82 -28 -212 -84 -337 -145 -83 -41 -96 -40 -157 16 -23 20 -61 50 -86 65 -57 36 -130 92 -230 178 -43 37 -81 67 -85 67 -3 0 -34 24 -70 54 -35 30 -74 60 -87 67 -13 7 -61 47 -108 89 -47 42 -105 88 -130 102 -25 14 -56 38 -69 52 -14 14 -29 26 -34 26 -8 0 -49 33 -151 123 -24 20 -47 37 -51 37 -4 0 -21 12 -38 26 -17 14 -63 41 -104 61 -40 19 -76 39 -79 44 -3 5 -13 9 -22 9 -46 1 -167 81 -310 205 -120 103 -211 175 -229 182 -10 3 -31 15 -46 26 -25 17 -46 19 -186 20 -142 0 -162 -2 -187 -20 -16 -10 -49 -26 -73 -33 -24 -8 -51 -22 -60 -31 -9 -9 -29 -19 -45 -23 -16 -4 -41 -16 -55 -27 -44 -34 -115 -79 -126 -79 -5 0 -46 -34 -90 -75 -44 -41 -85 -74 -91 -75 -6 0 -32 -16 -57 -35 -25 -19 -49 -35 -52 -35 -16 0 -111 -81 -356 -303 -221 -200 -240 -218 -294 -274 -27 -28 -115 -118 -195 -199 -183 -187 -380 -400 -380 -411 0 -4 -28 -38 -63 -74 -34 -36 -80 -89 -102 -118 -22 -29 -52 -67 -67 -85 -16 -19 -28 -37 -28 -41 0 -12 -86 -118 -154 -190 -36 -38 -66 -75 -66 -81 0 -6 -13 -28 -30 -50 -16 -21 -30 -44 -30 -50 0 -6 -9 -19 -19 -28 -11 -10 -22 -30 -26 -44 -4 -15 -13 -34 -21 -43 -8 -9 -22 -38 -32 -65 -10 -27 -26 -62 -37 -79 -18 -26 -20 -46 -20 -181 l0 -152 35 -68 c19 -38 40 -73 46 -79 14 -12 113 -129 210 -245 39 -47 82 -107 96 -135 14 -27 52 -103 84 -167 60 -119 70 -135 137 -215 21 -25 46 -58 55 -72 9 -14 45 -59 79 -99 34 -39 70 -87 79 -105 9 -17 34 -52 56 -77 21 -25 54 -63 73 -85 44 -51 105 -132 105 -140 0 -3 34 -45 75 -92 41 -47 100 -118 129 -157 30 -40 61 -78 70 -85 9 -7 16 -17 16 -22 0 -5 15 -31 34 -57 51 -73 52 -83 13 -165 -55 -113 -110 -231 -172 -367 -74 -163 -79 -174 -105 -245 -12 -33 -28 -73 -35 -90 -8 -16 -23 -52 -35 -80 -30 -71 -44 -83 -109 -90 -31 -4 -65 -11 -77 -16 -11 -6 -94 -17 -185 -24 -169 -14 -302 -34 -315 -47 -4 -5 -41 -8 -81 -8 -94 0 -262 -19 -286 -32 -10 -5 -91 -14 -179 -19 -89 -5 -167 -14 -174 -20 -7 -6 -57 -15 -111 -20 -54 -5 -123 -11 -153 -14 -97 -9 -225 -28 -235 -35 -5 -4 -73 -10 -150 -14 -77 -4 -156 -11 -175 -16 -19 -5 -55 -14 -80 -20 -122 -31 -278 -138 -320 -219 -10 -21 -25 -43 -34 -50 -9 -7 -18 -28 -22 -47 -3 -19 -10 -37 -15 -40 -5 -3 -17 -22 -26 -42 -14 -31 -18 -92 -24 -402 -6 -351 -11 -407 -45 -550 -33 -143 -35 -195 -32 -825 2 -525 5 -634 17 -655 38 -65 60 -293 61 -617 0 -291 7 -361 41 -417 10 -17 19 -38 19 -47 0 -9 16 -36 35 -60 19 -24 35 -49 35 -54 0 -13 92 -105 105 -105 5 0 18 -9 29 -19 12 -10 46 -29 76 -41 30 -12 63 -26 72 -31 9 -5 36 -12 60 -15 24 -4 50 -11 60 -15 9 -5 90 -13 181 -18 91 -5 175 -15 187 -21 12 -6 99 -18 193 -25 95 -8 206 -21 247 -30 41 -9 129 -21 195 -25 145 -10 206 -19 221 -31 7 -5 72 -12 145 -15 74 -3 145 -10 159 -15 31 -11 228 -37 373 -49 134 -11 166 -27 184 -90 7 -25 20 -59 28 -77 8 -17 15 -36 15 -42 0 -6 5 -19 10 -29 11 -18 74 -190 92 -251 5 -19 16 -44 23 -55 8 -12 17 -38 20 -59 4 -20 11 -40 16 -43 5 -3 9 -12 9 -20 0 -14 22 -66 107 -254 14 -30 28 -64 33 -75 4 -11 17 -41 29 -68 11 -26 21 -58 21 -71 0 -25 -32 -78 -87 -141 -119 -138 -195 -233 -203 -250 -4 -11 -34 -51 -66 -88 -101 -115 -121 -141 -145 -182 -12 -22 -50 -71 -84 -110 -34 -38 -70 -83 -80 -100 -11 -16 -40 -55 -66 -85 -26 -30 -63 -89 -84 -130 -21 -41 -43 -82 -50 -90 -7 -8 -20 -38 -29 -67 -10 -28 -24 -57 -32 -63 -7 -7 -14 -19 -14 -26 0 -7 -30 -49 -67 -93 -192 -227 -241 -288 -273 -345 l-35 -61 0 -155 c1 -136 3 -159 20 -184 11 -16 27 -52 37 -79 10 -27 24 -57 32 -66 7 -9 17 -27 21 -41 4 -14 14 -32 22 -41 17 -20 83 -129 83 -138 0 -3 29 -37 65 -76 36 -38 89 -108 118 -153 28 -46 73 -108 100 -138 26 -30 47 -58 47 -63 0 -9 64 -83 171 -199 27 -30 49 -58 49 -63 0 -10 91 -99 102 -99 4 0 15 -15 24 -32 18 -35 564 -588 580 -588 5 0 38 -29 73 -65 34 -36 75 -72 89 -79 15 -8 37 -27 49 -44 30 -41 165 -148 237 -189 34 -19 65 -39 70 -44 6 -5 17 -9 26 -9 9 0 27 -11 40 -25 13 -14 27 -25 32 -25 5 0 28 -18 51 -41 23 -22 58 -49 77 -60 19 -11 55 -33 80 -49 25 -16 83 -48 130 -70 47 -23 101 -49 120 -60 72 -37 212 -50 323 -30 65 12 158 58 196 97 14 14 69 60 121 102 52 41 115 95 140 118 24 24 48 43 52 43 4 0 29 13 55 30 26 16 57 30 69 30 12 0 32 8 45 19 13 10 58 35 99 56 41 20 100 59 130 85 30 26 69 54 85 63 17 9 53 37 80 62 50 46 97 82 162 121 18 11 70 54 115 95 45 41 108 92 139 114 59 41 142 106 233 182 59 51 90 54 156 18 25 -13 56 -29 70 -34 14 -6 32 -16 40 -21 8 -6 26 -15 40 -21 14 -6 36 -17 50 -24 14 -8 45 -23 70 -35 25 -11 52 -25 60 -30 8 -6 22 -13 30 -16 8 -4 33 -15 55 -24 64 -29 115 -49 193 -76 39 -14 84 -32 100 -40 15 -7 33 -14 40 -14 14 0 105 -36 190 -76 29 -13 74 -29 100 -35 86 -19 89 -22 97 -156 4 -65 11 -122 15 -128 8 -10 26 -159 34 -280 7 -90 25 -207 37 -234 6 -14 14 -96 19 -183 5 -88 13 -165 19 -172 6 -7 18 -91 26 -187 13 -155 30 -275 47 -319 3 -8 10 -90 16 -182 5 -92 14 -173 19 -180 6 -7 14 -30 17 -52 4 -21 16 -55 27 -75 10 -20 19 -40 19 -44 0 -22 136 -177 156 -177 7 0 25 -10 41 -23 15 -13 57 -39 93 -57 l65 -34 340 -7 c187 -3 399 -12 470 -19 95 -10 302 -13 770 -11 352 1 667 3 700 4 33 0 130 -3 215 -7 131 -7 165 -6 218 8 48 13 125 18 330 21 329 6 384 11 416 36 13 10 30 19 36 19 27 0 153 95 210 158 33 37 60 71 60 77 1 5 9 28 20 50 11 22 19 45 20 51 0 6 6 24 14 40 16 32 33 155 45 334 4 64 13 126 20 138 7 13 17 96 23 185 5 89 14 171 18 182 12 29 22 96 31 220 8 122 24 227 39 265 5 14 14 98 19 187 5 89 14 170 20 181 6 11 16 84 22 163 14 185 14 185 46 196 69 25 254 83 265 83 7 0 51 18 98 39 122 56 152 69 227 97 38 14 109 45 158 69 327 157 410 195 430 195 26 0 88 -45 196 -142 42 -37 80 -68 83 -68 12 0 110 -77 145 -114 19 -20 39 -36 44 -36 6 0 29 -18 53 -40 24 -22 49 -40 55 -40 12 0 141 -104 178 -144 14 -14 30 -26 36 -26 6 0 24 -14 41 -31 36 -39 87 -72 189 -124 44 -22 91 -48 105 -58 13 -9 30 -17 37 -17 31 0 114 -49 180 -107 26 -24 89 -76 138 -117 50 -40 102 -85 116 -98 14 -13 59 -41 101 -61 l74 -37 140 0 c119 0 145 3 178 20 22 11 61 27 87 35 26 9 53 23 59 31 7 7 19 14 26 14 8 0 48 23 90 50 41 28 79 50 84 50 4 0 35 22 67 49 32 27 74 56 93 65 63 31 102 54 129 79 14 14 31 26 38 28 8 3 374 352 502 480 9 9 34 28 56 41 39 24 324 306 368 364 32 41 99 114 207 225 191 196 228 235 269 284 53 63 70 86 99 127 12 18 34 49 47 68 14 19 30 46 37 60 7 14 33 50 58 80 25 30 51 66 58 80 7 14 26 45 42 70 17 25 37 61 46 80 9 19 25 47 35 62 11 14 19 33 19 41 0 8 11 35 25 62 38 70 51 173 37 287 -8 63 -18 101 -32 120 -11 15 -20 32 -20 37 0 6 -24 38 -52 72 -29 33 -61 73 -70 87 -10 15 -47 59 -82 98 -79 87 -149 187 -165 236 -16 48 -115 233 -149 279 -48 64 -138 174 -155 188 -10 7 -17 18 -17 23 0 5 -17 30 -39 56 -21 26 -45 59 -52 74 -8 15 -49 66 -92 112 -42 47 -77 88 -77 92 0 9 -102 139 -205 259 -102 121 -123 157 -108 193 6 15 21 52 33 82 13 30 33 78 46 107 13 28 24 54 24 57 0 3 11 29 25 58 13 29 32 73 41 98 16 46 44 119 59 155 5 11 17 43 27 70 11 28 25 64 33 80 7 17 18 46 25 65 7 19 16 44 20 55 22 54 50 144 55 176 11 60 41 88 110 99 33 6 90 10 127 10 37 0 70 5 73 10 3 6 30 10 58 11 29 0 86 7 127 15 41 9 139 20 218 25 78 5 151 13 161 18 24 13 169 31 250 31 36 0 78 4 95 9 62 19 155 33 325 47 96 7 179 19 186 24 7 6 91 15 186 21 96 5 178 14 183 19 6 6 24 10 41 10 16 1 72 18 123 38 141 57 233 146 303 292 12 25 29 53 38 64 14 16 17 64 21 375 4 291 8 361 20 381 23 38 23 1622 0 1660 -12 21 -16 107 -20 527 l-5 501 -22 24 c-13 14 -23 33 -24 44 0 19 -6 29 -61 111 -61 92 -216 200 -313 218 -22 4 -45 11 -51 16 -9 7 -108 18 -304 33 -30 2 -89 11 -130 20 -41 9 -105 16 -142 16 -37 0 -70 5 -73 10 -3 6 -37 10 -74 10 -54 0 -74 4 -95 21 -19 15 -36 20 -59 16 -48 -7 -327 11 -340 22 -11 8 -149 25 -302 35 -65 4 -160 20 -215 36 -19 5 -104 14 -189 20 -85 6 -159 14 -165 19 -6 5 -41 12 -78 16 -73 7 -77 11 -97 70 -8 22 -26 66 -42 99 -16 32 -29 62 -29 68 0 5 -16 46 -36 91 -55 127 -58 133 -124 282 -34 77 -84 185 -111 240 l-50 101 34 57 c19 32 51 77 71 101 20 25 36 48 36 52 0 4 21 32 48 62 26 30 64 78 86 106 21 28 58 72 82 98 24 26 44 53 44 61 0 8 32 49 71 93 104 116 102 114 144 179 22 33 70 96 107 139 37 43 68 83 68 88 0 6 23 35 51 66 27 32 61 79 75 106 13 27 40 76 58 110 19 33 37 76 41 93 3 18 11 35 16 39 5 3 18 22 29 42 10 20 46 66 79 102 34 36 61 68 61 72 0 8 126 156 147 173 46 38 93 194 93 307 0 61 -27 178 -45 198 -8 9 -15 23 -15 31 0 19 -77 164 -122 231 -21 30 -38 59 -38 65 0 5 -13 22 -30 38 -16 16 -30 33 -30 38 0 5 -10 22 -22 38 -13 15 -36 47 -53 69 -16 22 -51 64 -77 93 -26 28 -69 80 -95 115 -27 35 -81 100 -122 145 -40 45 -80 96 -88 112 -23 45 -87 117 -224 250 -67 66 -215 213 -328 326 -193 194 -292 284 -351 321 -14 9 -57 44 -95 79 -39 35 -84 74 -100 87 -108 83 -170 129 -239 179 -43 32 -93 70 -111 86 -18 15 -35 27 -38 27 -3 0 -34 19 -68 43 -74 50 -66 46 -154 87 -38 18 -92 44 -120 58 -47 23 -60 25 -201 25 l-151 -1 -64 -36 c-59 -33 -136 -94 -326 -258 -40 -34 -81 -65 -91 -69 -10 -4 -35 -18 -56 -33 -21 -14 -53 -28 -72 -32 -19 -3 -37 -10 -39 -15 -3 -4 -43 -27 -88 -50 -45 -23 -107 -63 -137 -88 -30 -26 -68 -55 -85 -66 -16 -10 -62 -47 -101 -82 -39 -34 -74 -63 -78 -63 -6 0 -60 -37 -121 -83 -16 -12 -60 -50 -97 -84 -37 -35 -72 -63 -78 -63 -6 0 -56 -38 -113 -85 -56 -46 -127 -105 -157 -130 -30 -25 -68 -54 -85 -65 -40 -26 -164 -118 -210 -154 -41 -33 -50 -32 -160 19 -68 32 -110 50 -175 75 -30 11 -68 27 -85 34 -78 36 -154 66 -168 66 -9 0 -18 4 -21 9 -3 5 -41 21 -83 37 -43 15 -82 31 -88 34 -5 4 -34 13 -63 21 -29 7 -58 19 -64 26 -6 8 -14 55 -19 106 -9 102 -25 206 -39 252 -5 16 -14 102 -20 190 -6 87 -16 165 -22 172 -5 7 -14 84 -19 170 -5 87 -13 169 -19 183 -14 37 -30 151 -39 280 -9 124 -18 183 -31 215 -4 11 -13 96 -18 188 -6 98 -15 174 -22 182 -7 8 -16 67 -20 132 -23 313 -54 425 -149 543 -50 62 -170 160 -195 160 -5 0 -39 15 -75 32 l-66 33 -350 7 c-208 4 -372 11 -405 19 -67 14 -1350 21 -1505 8z m740 -6290 c99 -6 188 -15 198 -20 9 -5 74 -14 143 -20 70 -5 134 -13 143 -18 9 -4 70 -18 136 -30 66 -12 140 -29 165 -36 25 -8 65 -17 90 -21 25 -4 62 -15 82 -25 21 -11 47 -19 58 -19 11 0 53 -16 93 -35 39 -19 80 -35 89 -35 15 0 58 -19 268 -118 41 -19 91 -47 110 -62 19 -14 57 -34 83 -44 26 -10 61 -29 76 -42 16 -13 33 -24 39 -24 5 0 29 -15 53 -33 24 -18 55 -38 69 -44 14 -6 51 -34 82 -62 31 -28 59 -51 63 -51 4 0 32 -22 63 -50 31 -27 61 -50 67 -50 30 0 458 -432 525 -529 20 -31 48 -65 60 -76 12 -11 28 -32 36 -47 8 -15 35 -50 59 -78 25 -28 45 -56 45 -62 0 -6 16 -33 35 -59 19 -27 35 -51 35 -53 0 -3 22 -40 48 -83 27 -43 54 -95 61 -115 7 -20 25 -55 42 -77 16 -23 29 -46 29 -53 0 -11 60 -150 91 -210 18 -36 49 -139 49 -165 0 -15 9 -46 19 -68 10 -22 21 -59 24 -81 4 -23 14 -54 22 -70 8 -16 15 -38 15 -49 0 -11 7 -32 14 -47 8 -15 18 -52 21 -83 4 -30 11 -58 16 -61 5 -3 9 -22 9 -42 1 -41 15 -116 29 -147 5 -11 14 -72 20 -135 7 -63 18 -164 26 -225 18 -146 19 -367 0 -499 -8 -60 -20 -165 -26 -235 -6 -69 -16 -144 -23 -166 -8 -22 -17 -71 -21 -109 -4 -38 -11 -77 -15 -85 -10 -18 -26 -77 -46 -171 -8 -36 -18 -72 -23 -80 -5 -9 -15 -43 -22 -75 -7 -33 -26 -84 -41 -112 -15 -29 -28 -59 -28 -66 0 -17 -74 -181 -117 -260 -17 -32 -34 -71 -38 -87 -3 -16 -13 -34 -21 -41 -8 -6 -14 -15 -14 -20 0 -11 -71 -131 -92 -155 -10 -11 -18 -24 -18 -29 0 -5 -27 -41 -59 -81 -33 -39 -68 -89 -79 -110 -11 -22 -30 -50 -43 -63 -32 -34 -87 -112 -99 -140 -14 -31 -486 -501 -504 -501 -7 0 -41 -25 -75 -55 -34 -30 -67 -55 -75 -55 -7 0 -25 -14 -42 -31 -16 -17 -42 -38 -59 -46 -16 -9 -56 -34 -87 -57 -73 -53 -130 -88 -198 -122 -30 -15 -78 -42 -107 -61 -29 -18 -58 -33 -65 -33 -7 0 -67 -26 -133 -58 -66 -33 -135 -62 -154 -66 -19 -3 -62 -19 -95 -35 -34 -16 -77 -32 -96 -36 -19 -4 -39 -11 -45 -15 -5 -4 -35 -13 -65 -20 -30 -7 -65 -16 -78 -21 -12 -5 -48 -12 -80 -15 -31 -4 -65 -11 -76 -16 -10 -6 -51 -16 -90 -24 -39 -7 -89 -18 -111 -24 -22 -6 -111 -13 -198 -17 -87 -3 -160 -10 -163 -15 -7 -11 -507 -10 -519 1 -6 5 -71 12 -145 15 -74 3 -160 10 -190 16 -30 5 -96 16 -146 24 -51 8 -101 19 -112 25 -11 6 -45 14 -76 17 -31 4 -59 11 -62 15 -3 5 -14 9 -25 9 -11 0 -36 8 -57 19 -20 10 -57 22 -82 26 -25 4 -61 16 -80 26 -19 11 -43 19 -52 19 -10 0 -26 4 -36 9 -9 5 -39 19 -67 31 -109 46 -476 233 -507 257 -7 6 -24 14 -38 18 -14 4 -43 23 -66 41 -23 19 -46 34 -52 34 -5 0 -33 18 -61 40 -28 22 -53 40 -57 40 -4 0 -29 21 -56 46 -26 25 -64 52 -83 60 -35 14 -535 506 -535 525 0 5 -27 41 -60 81 -33 39 -60 76 -60 82 0 5 -18 28 -40 51 -37 37 -93 121 -128 190 -8 17 -27 46 -42 65 -15 19 -40 63 -55 97 -15 35 -34 68 -41 74 -8 6 -14 19 -14 28 0 10 -18 53 -40 96 -22 43 -40 85 -40 93 0 8 -9 25 -20 39 -11 14 -20 32 -20 39 0 7 -11 34 -25 60 -14 26 -30 66 -37 88 -6 23 -15 46 -18 51 -4 6 -13 33 -20 60 -7 28 -16 55 -21 60 -4 6 -10 33 -14 60 -3 28 -10 59 -15 70 -18 42 -30 89 -30 116 0 15 -4 30 -9 33 -5 3 -12 34 -16 68 -3 35 -13 83 -21 108 -8 25 -19 99 -25 165 -14 152 -23 853 -10 869 4 6 12 63 16 126 4 63 11 123 16 132 5 9 14 52 20 95 6 43 14 83 18 88 5 6 11 33 15 60 6 50 21 104 56 200 10 28 22 66 26 85 3 19 12 44 19 55 7 11 16 36 20 55 8 44 13 57 57 150 45 96 81 175 102 225 9 22 24 54 33 70 9 17 27 53 41 80 13 28 39 71 58 98 19 26 34 50 34 55 0 4 18 30 40 57 22 28 40 54 40 58 0 17 85 132 144 195 35 37 71 82 81 101 23 45 451 474 495 496 19 10 60 41 91 69 31 28 78 62 105 76 27 14 67 41 90 60 37 32 81 60 186 117 22 12 48 28 57 36 9 8 36 22 61 31 25 10 73 35 107 57 34 21 67 39 73 39 5 0 50 18 99 40 49 22 95 40 103 40 7 0 23 7 35 15 11 8 46 21 76 29 30 8 72 23 93 34 22 11 59 23 84 27 25 4 58 13 75 21 16 8 59 19 95 24 36 6 83 16 105 25 22 8 58 14 81 15 22 0 45 5 51 11 6 6 65 14 131 19 67 5 127 12 134 17 11 7 223 25 368 32 19 0 116 -4 215 -10z"/></g><text x="0" y="2063" fill="#000000" font-size="5px" font-weight="bold" font-family="'Helvetica Neue', Helvetica, Arial-Unicode, Arial, Sans-serif">Created by Janae Crawford</text><text x="0" y="2068" fill="#000000" font-size="5px" font-weight="bold" font-family="'Helvetica Neue', Helvetica, Arial-Unicode, Arial, Sans-serif">from the Noun Project</text></svg>