<svg xmlns="http://www.w3.org/2000/svg" xmlns:xlink="http://www.w3.org/1999/xlink" version="1.1" x="0px" y="0px" viewBox="0 0 682 852.5" style="enable-background:new 0 0 682 682;" xml:space="preserve"><g><path d="M644.8,595.6h-24.5v-31.4c0-8.6-7-15.6-15.6-15.6H586v-32.4c0-8.6-7-15.6-15.6-15.6h-3.3v-4.7v-50.9V282.7h5.2   c8.6,0,15.6-7,15.6-15.6v-30.5h4.2c8.6,0,15.6-7,15.6-15.6v-27c0-6.7-3.5-13-9.2-16.5L350.8,25.5c-6.2-3.8-14-3.8-20.2,0   L82.9,177.7c-5.7,3.5-9.2,9.8-9.2,16.5v27c0,8.6,7,15.6,15.6,15.6h4.2v30.5c0,8.6,7,15.6,15.6,15.6h5.2v218h-3.3   c-8.6,0-15.6,7-15.6,15.6v32.4H76.7c-8.6,0-15.6,7-15.6,15.6v31.4H36.6c-8.6,0-15.6,7-15.6,15.6v34.2c0,8.6,7,15.6,15.6,15.6h608.2   c8.6,0,15.6-7,15.6-15.6v-34.2C660.4,602.6,653.4,595.6,644.8,595.6z M567.3,519.4v29.3h-97.7v-29.3h88.2H567.3z M392.6,500.7h-3.3   v-218h80.4v218h-3.3c-8.6,0-15.6,7-15.6,15.6v32.4h-42.7v-32.4C408.2,507.7,401.2,500.7,392.6,500.7z M214.8,500.7h-3.3v-218h63.1   H292v218h-3.3c-8.6,0-15.6,7-15.6,15.6v32.4h-42.8v-32.4C230.4,507.7,223.4,500.7,214.8,500.7z M370.7,282.7v218h-60v-218h25.7   H370.7z M291.8,519.4H380h9.5v29.3h-97.7V519.4z M548.4,445.2v50.9v4.7h-60v-218h60V445.2z M102.8,218H92.4v-23.8   c0-0.2,0.1-0.4,0.3-0.5L340.3,41.4c0.2-0.1,0.4-0.1,0.6,0l247.7,152.2c0.2,0.1,0.3,0.3,0.3,0.5V218H102.8z M112.2,264v-27.4h457   V264H336.3h-61.7H112.2z M192.9,282.7v218h-60v-218H192.9z M114.1,519.4h97.7v29.3h-97.7V519.4z M79.8,567.4h521.7v28H79.8V567.4z    M641.7,642.3h-602v-28h602V642.3z"/><path d="M459.7,162.3L351.1,92.5c-6.3-4.1-14.5-4.1-20.9,0l-108.5,69.8c-7.3,4.7-10.5,13.4-8.1,21.7c2.4,8.3,9.9,13.9,18.5,13.9   h217.1c8.6,0,16.1-5.6,18.5-13.9C470.2,175.7,466.9,167,459.7,162.3z M449.8,178.8c-0.1,0.4-0.3,0.4-0.6,0.4H232.1   c-0.3,0-0.5,0-0.6-0.4c-0.1-0.4,0-0.5,0.3-0.7l108.5-69.8c0.1-0.1,0.2-0.1,0.3-0.1s0.2,0,0.3,0.1l108.6,69.8   C449.8,178.2,449.9,178.3,449.8,178.8z"/></g><text x="0" y="697" fill="#000000" font-size="5px" font-weight="bold" font-family="'Helvetica Neue', Helvetica, Arial-Unicode, Arial, Sans-serif">Created by Sandro Berger</text><text x="0" y="702" fill="#000000" font-size="5px" font-weight="bold" font-family="'Helvetica Neue', Helvetica, Arial-Unicode, Arial, Sans-serif">from the Noun Project</text></svg>