<svg xmlns="http://www.w3.org/2000/svg" data-name="Layer 1" viewBox="0 0 64 80" x="0px" y="0px"><title>Artboard 4</title><path d="M32,2A30,30,0,1,0,62,32,30.0366,30.0366,0,0,0,32,2ZM47.25,37.25a5.7645,5.7645,0,0,1-4.82,2.26,5.7625,5.7625,0,0,1-4.85-2.25h-.21c.14,1.39.21,2.23.21,2.53v6.73H34.09V22.77h2.82c.08.31.25,1.04.49,2.2h.18a5.4717,5.4717,0,0,1,4.91-2.5,5.6855,5.6855,0,0,1,4.79,2.23A10.0232,10.0232,0,0,1,49,30.96,10.0309,10.0309,0,0,1,47.25,37.25ZM27.26,39.21l-5.2-8.68H18.55v8.68H15V17.48h6.14q4.2,0,6.23,1.57a5.6571,5.6571,0,0,1,2.02,4.76q0,4.05-4.22,5.78l6.14,9.62ZM44.44,26.74a7.4321,7.4321,0,0,1,.98,4.19,7.7306,7.7306,0,0,1-.98,4.24,3.1651,3.1651,0,0,1-2.8,1.48,3.5624,3.5624,0,0,1-3.11-1.34,7.7452,7.7452,0,0,1-.95-4.35v-.52a6.3518,6.3518,0,0,1,.96-3.9,3.637,3.637,0,0,1,3.04-1.22A3.2593,3.2593,0,0,1,44.44,26.74ZM25.73,23.93a3.3328,3.3328,0,0,1-1.11,2.73,5.5939,5.5939,0,0,1-3.6.92H18.55v-7.1H20.9a6.6435,6.6435,0,0,1,3.63.8A2.9592,2.9592,0,0,1,25.73,23.93Z"/><text x="0" y="79" fill="#000000" font-size="5px" font-weight="bold" font-family="'Helvetica Neue', Helvetica, Arial-Unicode, Arial, Sans-serif">Created by Siipkan Creative</text><text x="0" y="84" fill="#000000" font-size="5px" font-weight="bold" font-family="'Helvetica Neue', Helvetica, Arial-Unicode, Arial, Sans-serif">from the Noun Project</text></svg>