<?xml version="1.0" standalone="no"?>
<!DOCTYPE svg PUBLIC "-//W3C//DTD SVG 20010904//EN"
 "http://www.w3.org/TR/2001/REC-SVG-20010904/DTD/svg10.dtd">
<svg version="1.0" xmlns="http://www.w3.org/2000/svg"
 width="2048.000000pt" height="2048.000000pt" viewBox="0 0 2048.000000 2048.000000"
 preserveAspectRatio="xMidYMid meet">
<metadata>
Created by potrace 1.14, written by Peter Selinger 2001-2017
</metadata>
<g transform="translate(0.000000,2048.000000) scale(0.100000,-0.100000)"
fill="#000000" stroke="none">
<path d="M17407 16073 c-2 -1 -36 -4 -77 -7 -142 -11 -296 -28 -380 -42 -14
-2 -45 -7 -70 -10 -62 -8 -71 -10 -105 -18 -17 -3 -46 -8 -66 -10 -19 -2 -44
-6 -55 -9 -10 -3 -35 -8 -54 -11 -19 -3 -45 -8 -57 -11 -13 -3 -33 -7 -45 -10
-13 -2 -36 -8 -53 -11 -16 -4 -37 -8 -45 -9 -8 -1 -24 -4 -35 -8 -18 -6 -41
-11 -100 -22 -35 -7 -60 -13 -60 -15 0 -1 -7 -3 -15 -5 -8 -1 -33 -7 -55 -13
-22 -6 -51 -13 -65 -16 -14 -3 -52 -13 -85 -22 -33 -9 -67 -18 -75 -20 -8 -2
-55 -15 -105 -30 -49 -14 -97 -27 -105 -29 -8 -2 -26 -8 -40 -13 -14 -5 -29
-10 -35 -11 -5 -1 -48 -13 -95 -27 -47 -15 -89 -27 -95 -28 -5 -1 -14 -4 -20
-7 -5 -4 -23 -10 -40 -14 -34 -10 -35 -10 -55 -18 -16 -6 -242 -81 -250 -83
-3 0 -13 -4 -22 -8 -9 -4 -22 -8 -30 -10 -7 -1 -17 -4 -23 -7 -17 -10 -110
-39 -116 -36 -3 1 -12 -3 -20 -9 -11 -9 -65 -30 -99 -39 -3 -1 -22 -9 -42 -18
-21 -10 -44 -17 -51 -17 -8 0 -17 -3 -21 -7 -3 -4 -12 -8 -19 -9 -7 -1 -45
-16 -84 -33 -40 -16 -73 -27 -73 -24 0 3 -6 1 -12 -4 -7 -5 -40 -20 -73 -33
-33 -12 -73 -28 -90 -35 -16 -8 -55 -23 -85 -35 -30 -11 -70 -28 -89 -37 -18
-8 -39 -16 -45 -17 -6 -1 -22 -8 -36 -16 -14 -7 -26 -13 -27 -12 -3 1 -53 -19
-108 -43 -16 -7 -59 -26 -95 -41 -79 -33 -124 -52 -215 -94 -38 -18 -74 -33
-80 -35 -5 -1 -41 -16 -79 -34 -39 -18 -86 -39 -105 -48 -20 -9 -96 -45 -170
-80 -73 -34 -137 -63 -141 -63 -4 0 -28 -12 -54 -26 -48 -27 -81 -27 -108 -1
-12 13 -52 35 -198 115 -78 42 -283 146 -290 147 -3 0 -21 8 -40 17 -19 9 -64
28 -100 43 -36 15 -78 33 -95 40 -77 32 -166 66 -225 85 -36 11 -72 24 -80 27
-8 3 -18 7 -22 8 -5 2 -9 3 -10 5 -2 1 -11 3 -21 5 -10 2 -26 7 -35 11 -9 4
-21 8 -27 9 -5 2 -44 13 -85 25 -41 12 -82 24 -90 25 -8 2 -15 4 -15 5 0 1 -7
3 -15 5 -52 11 -71 16 -125 30 -72 19 -88 22 -140 30 -22 3 -48 8 -57 11 -34
10 -73 18 -153 29 -27 3 -58 9 -68 12 -11 3 -40 7 -65 9 -26 2 -63 6 -82 10
-299 49 -884 49 -1280 0 -80 -10 -136 -18 -154 -22 -12 -2 -37 -7 -56 -10 -84
-13 -97 -15 -130 -24 -19 -5 -52 -11 -74 -14 -21 -4 -41 -8 -45 -10 -3 -2 -22
-7 -41 -10 -19 -3 -62 -13 -95 -22 -33 -8 -67 -17 -75 -19 -57 -12 -235 -65
-303 -91 -20 -7 -39 -14 -42 -13 -3 0 -31 -9 -63 -21 -31 -12 -61 -23 -67 -24
-5 -2 -23 -8 -40 -15 -16 -7 -75 -30 -129 -52 -119 -48 -191 -81 -356 -164
-107 -53 -167 -86 -360 -196 -14 -8 -27 -16 -30 -19 -8 -9 -89 -60 -94 -60 -8
0 -242 -163 -286 -199 -11 -9 -41 -32 -67 -51 -27 -19 -50 -37 -53 -40 -3 -3
-41 -34 -85 -69 -44 -36 -87 -72 -96 -80 -9 -9 -52 -47 -95 -86 -292 -263
-577 -592 -801 -925 -76 -112 -173 -268 -173 -277 0 -3 -9 -17 -19 -32 -36
-49 -201 -371 -201 -390 0 -6 -4 -11 -10 -11 -5 0 -10 -7 -10 -16 0 -9 -6 -28
-14 -42 -15 -29 -31 -65 -69 -157 -39 -97 -40 -100 -41 -105 -1 -3 -7 -18 -13
-35 -39 -95 -37 -91 -48 -130 -4 -16 -10 -34 -14 -40 -3 -5 -6 -12 -7 -15 -4
-21 -18 -67 -23 -75 -3 -5 -6 -12 -6 -15 -2 -19 -30 -107 -38 -117 -5 -7 -7
-13 -4 -13 3 0 -3 -30 -14 -67 -11 -38 -21 -77 -24 -88 -2 -11 -11 -46 -18
-77 -8 -32 -13 -58 -10 -58 2 0 0 -8 -6 -17 -5 -10 -12 -40 -15 -67 -4 -27 -9
-53 -11 -56 -2 -4 -7 -22 -10 -41 -3 -19 -8 -47 -11 -64 -3 -16 -7 -39 -9 -50
-1 -11 -6 -40 -10 -65 -4 -25 -9 -56 -10 -70 -12 -96 -20 -165 -30 -276 -23
-235 -22 -658 1 -894 14 -147 30 -275 40 -325 14 -74 13 -79 -30 -118 -468
-433 -986 -948 -1297 -1291 -30 -33 -67 -74 -84 -92 -16 -17 -57 -62 -90 -99
-33 -38 -65 -73 -70 -79 -6 -6 -55 -63 -109 -126 -54 -63 -108 -126 -120 -140
-12 -14 -42 -50 -66 -80 -64 -78 -83 -101 -97 -116 -7 -7 -13 -16 -13 -20 0
-3 -8 -14 -18 -23 -9 -9 -31 -34 -47 -56 -16 -22 -35 -47 -42 -55 -47 -57
-156 -201 -216 -285 -39 -55 -74 -102 -77 -105 -7 -7 -69 -97 -138 -200 -31
-47 -59 -87 -62 -90 -3 -3 -10 -14 -16 -25 -6 -11 -44 -72 -84 -135 -40 -63
-75 -121 -78 -130 -3 -8 -8 -17 -12 -20 -24 -19 -226 -413 -303 -590 -22 -50
-99 -260 -98 -267 0 -2 -7 -22 -15 -45 -9 -24 -17 -50 -19 -58 -1 -8 -9 -35
-16 -60 -7 -25 -14 -52 -15 -60 -3 -18 -16 -79 -21 -100 -3 -15 -6 -35 -18
-140 -12 -98 -8 -269 10 -370 41 -241 187 -461 395 -596 93 -60 219 -119 305
-144 22 -6 47 -14 55 -17 24 -9 62 -19 108 -29 12 -2 32 -6 45 -8 12 -3 33 -7
47 -10 14 -3 48 -8 75 -11 28 -4 61 -8 75 -10 153 -25 550 -20 810 10 25 2 68
7 95 10 28 3 61 7 75 10 14 2 45 6 69 9 23 3 57 9 75 12 17 3 42 8 56 9 14 2
36 6 50 9 14 2 41 7 60 10 19 3 46 8 60 12 14 3 36 7 50 9 14 2 36 6 50 9 49
11 66 15 160 36 52 11 106 23 119 26 14 3 28 7 31 9 4 2 22 7 41 10 19 3 86
20 149 36 63 17 122 33 130 35 41 9 259 73 283 83 15 6 27 9 27 6 0 -2 16 3
35 11 19 8 35 11 35 8 0 -4 6 -2 13 4 9 8 57 22 87 27 3 0 10 3 15 6 8 5 54
19 75 23 3 1 10 4 15 7 6 4 24 10 40 14 44 12 41 11 150 50 96 34 189 66 210
71 6 1 38 14 72 27 35 14 63 23 63 20 0 -3 6 -1 13 4 10 9 79 35 97 38 3 0 15
6 28 13 12 7 22 10 22 6 0 -3 6 -2 13 3 10 8 97 44 117 49 3 0 19 6 35 13 17
6 53 21 82 32 29 12 53 20 55 18 2 -1 14 4 28 11 14 8 27 15 30 15 3 1 23 9
45 19 22 10 45 19 50 20 10 3 26 9 115 49 25 11 50 20 55 22 6 1 24 8 40 15
17 7 32 14 35 15 3 1 31 13 64 28 32 15 60 27 62 27 2 0 29 12 61 26 32 14 67
30 78 34 32 13 105 45 185 82 41 19 109 50 150 68 41 18 120 55 175 81 55 26
150 70 210 99 139 65 822 406 895 447 30 17 109 58 175 92 66 34 125 65 131
70 6 5 29 18 50 29 90 45 169 87 174 92 3 4 25 16 50 29 61 31 153 82 165 91
6 4 39 23 75 43 225 121 1019 589 1137 669 23 15 44 28 48 28 3 0 21 11 39 25
18 14 36 25 39 25 3 0 26 14 50 30 25 17 50 30 56 30 6 0 11 3 11 8 0 4 17 16
38 27 20 11 42 24 47 28 27 22 338 217 345 217 5 0 10 4 12 8 2 4 53 39 113
77 61 38 119 77 131 87 11 10 23 18 26 18 4 0 138 89 288 190 8 6 38 25 65 44
64 42 224 151 251 171 12 9 46 32 77 53 30 20 96 66 147 102 123 87 291 206
313 222 22 15 91 65 233 169 56 41 111 81 124 89 12 8 32 23 43 32 34 27 37
30 117 88 41 30 84 63 94 72 11 10 23 18 26 18 4 0 16 8 28 18 11 9 53 42 92
72 63 47 153 117 264 202 16 13 34 28 40 33 6 6 31 25 56 42 25 17 55 39 66
49 12 11 36 30 54 44 39 29 90 70 110 87 8 7 42 34 75 60 33 26 65 52 71 58 7
5 24 19 40 30 15 11 32 25 38 30 6 6 72 60 146 119 74 60 140 114 145 120 6 6
33 29 60 51 28 21 52 42 55 45 6 6 77 66 225 189 55 46 105 89 110 95 6 6 57
51 115 101 95 81 130 112 209 183 14 13 55 49 90 80 35 32 76 68 91 82 15 14
71 66 125 115 432 396 928 888 1270 1259 17 18 53 57 80 87 55 60 175 194 206
230 11 13 39 47 64 74 256 293 566 686 749 949 16 22 53 76 82 118 30 42 54
81 54 86 0 6 7 12 15 16 8 3 15 10 15 16 0 9 66 116 80 130 3 3 12 16 19 30 8
14 49 84 91 155 114 194 237 423 231 433 0 1 10 23 23 50 13 26 36 76 51 112
15 36 32 76 38 90 6 14 12 30 13 35 8 24 64 180 65 180 0 0 2 7 4 15 2 8 13
50 25 92 11 43 23 88 25 100 3 13 7 34 10 48 23 108 30 183 29 335 0 77 -3
158 -7 180 -4 22 -10 50 -12 62 -2 12 -8 37 -14 56 -7 19 -13 43 -16 55 -3 19
-55 128 -86 182 -46 79 -155 193 -236 248 -29 19 -53 39 -53 43 0 5 -3 8 -7 7
-5 -1 -45 17 -90 39 -75 37 -132 62 -158 68 -5 2 -39 12 -75 24 -74 24 -98 30
-155 37 -21 3 -43 8 -47 10 -5 3 -23 7 -41 9 -18 3 -52 7 -77 10 -25 4 -65 9
-90 11 -45 5 -519 12 -523 7z m-1647 -1828 c14 -3 39 -8 55 -11 65 -10 179
-59 235 -99 74 -55 121 -124 150 -219 16 -51 16 -208 0 -276 -14 -61 -50 -180
-59 -195 -3 -5 -6 -15 -7 -22 -1 -7 -14 -37 -28 -68 -14 -30 -25 -58 -26 -60
0 -8 -81 -157 -122 -224 -21 -34 -38 -67 -38 -72 0 -5 -3 -9 -8 -9 -4 0 -16
-16 -27 -36 -10 -19 -29 -48 -42 -62 -13 -15 -23 -30 -23 -34 0 -5 -21 -36
-46 -70 -25 -35 -53 -74 -62 -87 -30 -42 -177 -230 -209 -267 -10 -12 -36 -43
-58 -70 -94 -114 -206 -240 -311 -352 l-61 -66 -23 70 c-71 213 -263 625 -390
834 -5 8 -28 47 -51 85 -117 194 -348 515 -454 631 -5 6 -28 33 -50 59 -42 50
-73 84 -161 177 -30 31 -50 59 -45 62 29 18 275 102 277 95 0 -2 7 1 15 7 12
10 88 35 345 115 17 5 40 12 50 14 10 2 80 21 154 41 74 20 146 38 160 40 14
2 56 10 93 19 38 8 85 17 105 20 20 4 51 8 67 11 50 7 97 13 165 20 36 3 66 8
68 9 6 6 337 -4 362 -10z m-10290 -6127 c0 -9 4 -19 9 -23 5 -3 17 -27 27 -53
10 -26 33 -73 51 -104 17 -32 30 -58 27 -58 -2 0 8 -19 22 -42 15 -23 33 -55
41 -72 7 -17 26 -52 41 -77 15 -26 45 -77 66 -115 22 -38 43 -73 48 -79 4 -5
48 -71 98 -145 50 -74 101 -149 113 -165 51 -70 137 -181 154 -200 10 -11 29
-33 42 -50 89 -116 323 -360 509 -532 28 -27 52 -51 52 -55 0 -3 -15 -9 -32
-13 -44 -10 -40 -9 -65 -23 -13 -7 -23 -10 -23 -6 0 3 -6 2 -12 -3 -10 -8 -68
-31 -98 -38 -3 -1 -13 -5 -22 -9 -9 -4 -22 -9 -30 -10 -7 -2 -20 -6 -28 -9
-38 -16 -289 -99 -340 -113 -8 -2 -68 -19 -133 -38 -64 -19 -130 -37 -145 -39
-15 -3 -34 -8 -42 -11 -8 -3 -26 -8 -40 -10 -14 -3 -45 -10 -70 -17 -25 -6
-56 -13 -70 -15 -14 -2 -47 -8 -75 -14 -27 -6 -61 -13 -75 -14 -14 -2 -41 -7
-60 -10 -146 -26 -413 -37 -545 -23 -88 9 -187 37 -260 72 -155 75 -236 207
-236 383 0 108 9 156 52 295 30 92 129 303 202 427 58 98 92 152 105 165 6 8
12 18 12 23 0 6 3 12 8 14 4 2 25 30 47 63 22 33 44 65 48 70 4 6 51 66 103
135 82 106 205 259 239 296 5 6 30 35 55 64 25 29 56 65 70 80 14 15 49 55 79
88 49 55 56 59 67 44 8 -9 14 -25 14 -34z"/>
<path d="M15253 9459 c-26 -23 -59 -51 -73 -62 -74 -63 -285 -239 -316 -263
-20 -16 -43 -35 -50 -41 -7 -7 -18 -13 -25 -13 -7 0 -10 -3 -6 -6 3 -3 -15
-22 -41 -41 -49 -38 -53 -41 -93 -76 -15 -12 -42 -34 -60 -49 -161 -127 -210
-166 -238 -188 -19 -14 -47 -37 -65 -51 -17 -14 -94 -74 -171 -133 -77 -59
-153 -118 -170 -131 -61 -47 -224 -170 -246 -185 -12 -8 -36 -26 -53 -41 -33
-27 -233 -174 -381 -280 -49 -35 -96 -70 -103 -76 -7 -7 -16 -13 -20 -13 -4 0
-20 -11 -37 -25 -40 -33 -46 -37 -75 -57 -14 -9 -46 -32 -71 -50 -77 -55 -155
-109 -354 -246 -104 -72 -194 -135 -200 -139 -5 -5 -158 -107 -340 -227 -181
-120 -342 -227 -357 -237 -15 -10 -31 -19 -36 -19 -5 0 -17 -9 -27 -20 -10
-11 -22 -20 -27 -20 -5 0 -14 -5 -21 -11 -17 -15 -469 -300 -487 -307 -8 -3
-17 -8 -20 -12 -3 -3 -30 -21 -60 -39 -30 -17 -104 -63 -165 -101 -60 -38
-115 -69 -122 -70 -6 0 -13 -3 -15 -8 -4 -9 -176 -112 -188 -112 -5 0 -10 -4
-12 -8 -2 -5 -30 -23 -63 -42 -33 -18 -67 -39 -75 -46 -8 -7 -19 -14 -25 -15
-5 -1 -26 -12 -45 -24 -19 -12 -47 -28 -62 -36 -15 -8 -62 -35 -105 -60 -43
-25 -98 -57 -123 -71 -25 -14 -77 -44 -117 -67 -40 -22 -77 -41 -83 -41 -5 0
-10 -4 -10 -9 0 -5 -16 -15 -35 -21 -19 -6 -35 -15 -35 -19 0 -3 -12 -12 -27
-18 -16 -6 -57 -28 -93 -48 -36 -20 -87 -49 -115 -65 -72 -40 -241 -130 -435
-232 -25 -12 -46 -26 -48 -30 -2 -5 -11 -8 -20 -8 -9 0 -25 -7 -35 -15 -18
-13 -18 -14 0 -23 17 -9 72 -24 103 -27 8 -1 29 -5 45 -9 76 -17 175 -35 220
-41 17 -2 46 -7 65 -10 19 -4 46 -8 60 -10 14 -2 45 -6 70 -9 117 -14 148 -18
190 -21 370 -30 791 -23 1105 19 84 11 122 17 145 20 14 3 45 7 70 10 25 4 52
8 60 11 8 2 29 7 45 10 17 2 41 7 55 10 63 13 86 18 105 20 11 2 20 4 20 5 0
2 16 6 55 14 52 12 66 15 98 25 17 5 32 7 32 4 0 -3 6 -1 13 5 7 6 24 12 37
14 14 3 66 17 115 32 50 16 97 30 105 31 8 2 16 4 18 5 1 2 5 3 10 5 4 1 14 4
22 8 8 3 49 18 90 32 110 39 202 74 230 90 14 7 30 14 35 15 18 4 59 22 97 42
21 10 40 19 43 18 9 -1 301 147 374 189 38 23 72 41 76 41 3 0 21 11 39 25 18
14 36 25 40 25 3 0 40 23 82 50 41 28 79 50 83 50 4 0 16 8 27 19 11 10 31 24
44 31 13 7 29 17 34 22 6 5 47 34 91 65 44 32 82 60 85 63 3 3 34 27 70 55 36
27 67 52 70 55 3 3 30 25 60 50 211 171 505 466 657 657 15 19 37 45 48 57 11
12 54 67 95 121 41 55 77 102 81 105 10 10 197 295 238 365 22 39 46 77 51 85
72 109 270 531 352 750 21 58 42 112 45 120 3 8 7 21 9 28 1 8 6 21 10 30 4 9
9 26 11 36 2 11 8 25 14 33 6 7 9 13 6 13 -3 0 -1 15 5 33 27 87 70 235 75
262 3 17 9 38 14 48 5 9 8 17 5 17 -2 0 5 37 15 83 11 45 22 96 25 112 7 40
11 64 18 98 19 90 30 177 22 177 -2 0 -26 -18 -53 -41z"/>
</g>
</svg>
